<svg version="1.1" id="Layer_1" xmlns="http://www.w3.org/2000/svg" xmlns:xlink="http://www.w3.org/1999/xlink" x="0px" y="0px"
	 viewBox="0 0 360 512" style="enable-background:new 0 0 360 512;" xml:space="preserve">
<style type="text/css">
	.st0{fill:#FFA000;}
	.st1{fill:#FFC107; box-shadow: 0 10px 15px -3px rgb(0 0 0 / 0.1), 0 4px 6px -4px rgb(0 0 0 / 0.1);}
</style>
<path class="st0" d="M181,132.5L181,132.5c-12.7,0-23.1-10.3-23.1-23.1V91.1c0-12.7,10.3-23.1,23.1-23.1h0
	c12.7,0,23.1,10.3,23.1,23.1v18.3C204,122.2,193.7,132.5,181,132.5z"/>
<circle class="st0" cx="181" cy="376.4" r="63.4"/>
<path class="st1" d="M165.5,107.6c10.2-0.9,20.1-1.1,30.4,0c9.2,1,17.7,3.5,25.9,7c13.6,5.7,25.6,13.8,35.6,24.6
	c9.8,10.5,17.5,22.5,22.4,36.1c4.5,12.7,6.6,25.7,6.4,39.2c-0.2,13.1-0.2,26.2,0,39.4c0.2,15.7,3.7,30.7,10.7,44.6
	c4,8.1,9.5,15.3,15.4,22.2c4.6,5.4,10.8,9,14.7,15.1c9.3,14.6,3,34.5-14,40c-2.4,0.8-4.9,1.2-7.4,1.2c-21.2,0-42.4,0-63.9,0
	c-40.2,0-80.1,0-120.4,0c-21.9,0-43.4-0.1-65,0c-13.7,0.1-25.4-12.6-25.4-25.2c0-7.4,1.6-14,6.6-19.3c3.2-3.4,6.9-6.5,10.2-9.9
	c13.9-14.4,22.7-31.5,26.2-51.3c1.9-10.5,2.1-21.2,2.1-31.8c0-11.2-0.1-22.5,0-33.7c0.2-12.7,3.4-24.8,8.5-36.4
	c6.1-13.8,14.8-25.9,26-36c11.3-10.2,24.3-17.6,38.9-22.2C154.4,109.5,159.8,108.3,165.5,107.6z"/>
</svg>
