<?xml version="1.0" encoding="utf-8"?>
<!-- Generator: Adobe Illustrator 28.1.0, SVG Export Plug-In . SVG Version: 6.00 Build 0)  -->
<svg version="1.1" id="Layer_1" xmlns="http://www.w3.org/2000/svg" xmlns:xlink="http://www.w3.org/1999/xlink" x="0px" y="0px"
	 viewBox="0 0 360 512" style="enable-background:new 0 0 360 512;" xml:space="preserve">
<style type="text/css">
	.st0{fill:#F8F8E5;}
</style>
<g>
	<g>
		<g>
			<path class="st0" d="M83,256h12.5c1.3,0,2.1-0.7,2.3-2l0.3-1.6l0,0c0.1-0.7,0-1.3-0.4-1.8c-0.3-0.3-0.8-0.7-1.7-0.7h-3l1.5-8.8
				h14.6l-1.5,8.8h-3.5c-1.3,0-2.2,0.7-2.4,2l-0.3,1.6l0,0c-0.1,0.9,0.2,1.5,0.4,1.8c0.3,0.3,0.8,0.7,1.7,0.7h12.5
				c1.3,0,2.1-0.7,2.3-2l0.3-1.6l0,0c0.1-0.7,0-1.3-0.4-1.8c-0.3-0.3-0.8-0.7-1.7-0.7h-3l3.8-21.6h3.5c0.7,0,2-0.2,2.4-1.9l0.3-1.7
				c0.1-0.7,0-1.3-0.4-1.8c-0.3-0.3-0.8-0.7-1.7-0.7H109c-1.3,0-2.2,0.8-2.4,2l-0.3,1.5c-0.2,0.9,0.1,1.5,0.3,1.8
				c0.3,0.4,0.8,0.8,1.8,0.8h3l-1.2,6.8H95.6l1.2-6.8h3.5c0.7,0,2-0.2,2.4-1.9l0.3-1.7c0.1-0.7,0-1.3-0.4-1.8
				c-0.3-0.3-0.8-0.7-1.7-0.7H88.4c-1.3,0-2.2,0.8-2.4,2l-0.3,1.5c-0.2,0.9,0.1,1.5,0.3,1.8c0.3,0.4,0.8,0.8,1.8,0.8h3l-3.8,21.6
				h-3.5c-1.3,0-2.2,0.7-2.4,2l-0.3,1.6l0,0c-0.1,0.9,0.2,1.5,0.4,1.8C81.5,255.6,82.1,256,83,256z"/>
			<path class="st0" d="M125.1,253.4c1.9,2,4.8,3.1,8.6,3.1c4.7,0,8.7-1.7,11.3-4.9c2.2-2.7,3.5-6.4,3.5-10.3
				c0-6.9-4.1-10.9-11.2-10.9c-4.7,0-8.7,1.7-11.3,5c-2.2,2.7-3.5,6.4-3.5,10.3C122.4,249,123.3,251.6,125.1,253.4z M137.1,236.6
				c3.3,0,5.5,0.8,5.5,5c0,1.4-0.2,3.9-1.8,6c-1.5,1.9-3.8,2.9-6.9,2.9c-3.3,0-5.5-0.8-5.5-4.9c0-1.4,0.2-3.9,1.8-6
				C131.7,237.5,134,236.6,137.1,236.6z"/>
			<path class="st0" d="M154.2,228.2h2.9l-4,20.1c-0.5,2.4-0.1,4.6,1.1,6.1c0.8,1,2.2,2.1,4.8,2.1c3.9,0,7.2-3.2,8.4-8
				c0.2-0.7,0-1.2-0.2-1.6c-0.2-0.3-0.6-0.7-1.3-0.8l-2-0.4l-0.1,0c-0.5-0.1-1.7-0.1-2.1,1.4l0,0c-0.5,1.8-1.4,3.1-2.2,3.1
				c-0.4,0-0.5-0.1-0.6-0.1c0-0.1-0.1-0.3,0-1l4.7-24.3c0.2-0.8,0-1.5-0.4-2.1c-0.4-0.5-1.1-0.8-1.9-0.8h-6.6c-1.2,0-2.1,0.8-2.3,2
				l-0.3,1.6c-0.1,0.7,0,1.4,0.4,1.8C152.9,228,153.5,228.2,154.2,228.2z"/>
			<path class="st0" d="M177.5,230.4c2.5,0,4.6-2,4.6-4.4c0-2.2-1.8-3.9-4.1-3.9c-2.5,0-4.6,2-4.6,4.4
				C173.4,228.7,175.2,230.4,177.5,230.4z"/>
			<path class="st0" d="M185,248.5c0.2-0.7,0-1.2-0.2-1.6c-0.2-0.3-0.6-0.7-1.3-0.8l-2-0.4l-0.1,0c-0.5-0.1-1.7-0.1-2.1,1.4l0,0
				c-0.4,1.5-1.3,3.1-2.3,3.1c0,0,0,0,0,0c0-0.2,0-0.5,0.1-1.2l2.8-15.2l0-0.1c0.1-1-0.2-1.7-0.5-2c-0.4-0.5-1.1-0.8-1.8-0.8H171
				c-1.2,0-2.1,0.8-2.3,2l-0.3,1.6c-0.1,0.7,0,1.4,0.4,1.8c0.4,0.5,1,0.7,1.8,0.7h2.9l-2.2,11.5c-0.5,2.6-0.1,4.7,1.1,6
				c0.7,0.8,2,1.8,4.4,1.8C180.4,256.5,183.8,253.2,185,248.5z"/>
			<path class="st0" d="M197.2,256.5c3.1,0,5.9-1.1,8-3.1c0.8,2,2.6,3.1,5,3.1c1.8,0,3.6-0.8,5.1-2.2c1.5-1.4,2.6-3.5,3.1-5.8
				c0.2-0.7,0-1.2-0.2-1.6c-0.2-0.3-0.6-0.7-1.3-0.8l-1.8-0.4l-0.1,0c-0.5-0.1-1.7-0.1-2.1,1.4l0,0c-0.4,1.4-1.2,3-2.2,3.1
				c0-0.2-0.1-0.6,0.1-1.5l4.3-24.2l0,0c0.1-0.9-0.2-1.5-0.5-1.8c-0.4-0.5-1-0.7-1.6-0.7h-8.5c-1.2,0-2.1,0.8-2.3,2l-0.3,1.6
				c-0.1,0.7,0,1.4,0.4,1.8c0.4,0.5,1,0.7,1.8,0.7h4.5l-0.9,5c-1.6-1.6-3.9-2.8-6.9-2.8c-3.3,0-6.6,1.5-9.1,4.1
				c-2.7,2.9-4.2,6.8-4.2,11.2c0,3.4,1,6.2,2.9,8.1C192,255.6,194.4,256.5,197.2,256.5z M200.8,236.6c1.6,0,5.2,0.5,5.2,5
				c0,2.1-0.9,4.4-2.4,6c-1.6,1.7-3.6,2.7-5.8,2.7c-4.4,0-4.7-3.8-4.7-5c0-1.6,0.5-3.9,1.9-5.8C196.4,237.6,198.4,236.6,200.8,236.6
				z"/>
			<path class="st0" d="M229.5,256.5c2.6,0,5.3-1,7.4-2.5c1,1.6,2.7,2.5,4.9,2.5c3.7,0,7.1-3.3,8.2-8c0.2-0.7,0-1.2-0.2-1.6
				c-0.2-0.3-0.6-0.7-1.3-0.8l-2-0.4l-0.1,0c-1.5-0.2-2,0.9-2.1,1.4l0,0c-0.4,1.5-1.3,3.1-2.3,3.1c0,0,0,0,0,0c0-0.1,0-0.3,0.1-0.6
				c0.2-1.1,0.6-2.4,1-3.8c0.8-2.7,1.6-5.5,1.6-7.4c0-2.4-1-8.1-10.2-8.1c-3.5,0-6.6,0.9-9.5,3l-0.1,0c-0.4,0.3-0.7,0.8-0.9,1.3
				l-0.5,3.1c-0.1,0.8,0.2,1.6,0.8,1.9c0.7,0.4,1.6,0.3,2.2-0.2l0.1-0.1c1.5-1.4,4.6-2.8,7.9-2.8c1.9,0,2.9,0.4,3.4,0.7
				c0.6,0.3,0.8,0.7,0.8,1.4c0,0.7-0.1,1.4-0.4,2.6c-1.8-1.2-4.1-1.9-6.6-1.9c-2.8,0-5.5,0.8-7.4,2.4c-2.2,1.7-3.4,4.1-3.4,6.9
				C220.8,253.4,224.3,256.5,229.5,256.5z M236.8,247C236.8,247,236.8,247,236.8,247l-0.2,0.7c-0.3,1-3.4,2.7-6.1,2.7
				c-1.3,0-2.3-0.2-3-0.7c-0.5-0.3-0.8-0.8-0.8-1.5c0-0.7,1-2.8,5.2-2.8C234.4,245.5,236.6,246.5,236.8,247z"/>
			<path class="st0" d="M252.4,240.8l2,0.4l0.1,0c0.5,0.1,1.7,0.1,2.1-1.4l0,0c0.4-1.5,1.3-3.1,2.3-3.1c0,0,0,0,0.1,0c0,0,0,0,0,0.1
				c0,0.9-0.6,3-1.2,4.8c-0.8,2.6-1.6,5.3-1.7,7.3c-3,1.5-4.9,4.4-4.9,7.5c0,2.3,0.8,4.3,2.4,5.9c1.5,1.5,4.5,3.3,10,3.3
				c7.3,0,14.7-4.9,14.7-14.2c0-1.8-0.3-3.8-1-5.9c1.2-3.2,1.9-6.3,1.9-8.8c0-3.8-1.8-6.3-4.7-6.3c-2.3,0-3.8,1.9-3.8,4.7
				c0,1.8,0.7,4.1,2.2,5.6c-0.6,2.6-1.7,5-3.4,6.8c-1.6,1.8-3.6,2.9-5.4,2.9c-1.8,0-2-0.9-2-1.6c0-1.4,0.8-3.9,1.5-6.2
				c0.8-2.5,1.5-4.8,1.5-6.4c0-3.5-2.4-5.8-5.9-5.8c-3.7,0-7.1,3.3-8.2,8c-0.2,0.7,0,1.2,0.2,1.6
				C251.3,240.3,251.7,240.7,252.4,240.8z M257.2,256.1c0-0.8,0.3-1.4,0.7-1.9c1.4,1.5,3.4,2.3,5.8,2.3c3.1,0,5.9-1.1,8.4-3.4
				c-1,3.8-4.4,6.3-8.9,6.3C259.1,259.5,257.2,257.8,257.2,256.1z"/>
			<path class="st0" d="M124.3,259.6c-3.5,0-6.6,1.1-8.9,3c-2.4,2.1-3.9,5.1-4.4,9c-0.5,3.7,0.2,6.8,2.1,9c1.9,2.2,4.9,3.3,8.6,3.3
				c4.9,0,8.5-2,10.1-3.8c0.2-0.3,0.4-0.6,0.4-0.9l0.6-3.6c0.1-0.4,0-0.7-0.2-1c-0.2-0.3-0.6-0.5-1-0.5h-0.5c-0.5,0-1,0.3-1.2,0.7
				l0,0.1c-1.2,2.9-4.3,4.6-8.2,4.6c-1.7,0-4-0.3-5.4-2c-1.1-1.3-1.5-3.2-1.2-5.7c0.4-2.7,1.4-4.8,3.1-6.2c1.5-1.2,3.5-1.8,5.7-1.8
				c1.7,0,4,0.3,5.4,1.7c0.8,0.9,1.2,2,1.1,3.6l0,0c0,0.5,0.3,0.9,0.4,1c0.2,0.2,0.6,0.3,1.1,0.2l0.7-0.2c0.5-0.1,0.9-0.6,1-1
				l0.8-4.2c0.1-0.4,0-0.9-0.3-1.2C133.2,262.4,129.8,259.6,124.3,259.6z"/>
			<path class="st0" d="M155.8,277.3c-0.1-0.2-0.4-0.5-0.9-0.6l-1.4-0.3l-0.1,0c-1-0.1-1.4,0.7-1.5,1l0,0c-0.3,1-0.9,2.1-1.6,2.1
				c0,0,0,0,0,0c0-0.1,0-0.2,0-0.4c0.2-0.8,0.4-1.7,0.7-2.7c0.5-1.9,1.1-3.8,1.1-5.1c0-1.7-0.7-5.6-7.1-5.6c-2.5,0-4.6,0.7-6.7,2.1
				l0,0c-0.3,0.2-0.5,0.6-0.6,0.9l-0.4,2.1c-0.1,0.6,0.1,1.1,0.6,1.4c0.5,0.3,1.1,0.2,1.5-0.1l0.1,0c1.1-1,3.2-2,5.5-2
				c1.3,0,2,0.2,2.4,0.5c0.4,0.2,0.6,0.5,0.6,1c0,0.5-0.1,1-0.3,1.8c-1.3-0.9-2.9-1.3-4.6-1.3c-2,0-3.8,0.6-5.2,1.7
				c-1.5,1.2-2.4,2.9-2.4,4.8c0,3.3,2.4,5.5,6.1,5.5c1.8,0,3.7-0.7,5.2-1.8c0.7,1.1,1.9,1.8,3.4,1.8c2.6,0,4.9-2.3,5.7-5.6
				C156.1,277.9,155.9,277.6,155.8,277.3z M139.7,278.2c0-0.5,0.7-1.9,3.6-1.9c1.7,0,3.2,0.7,3.3,1.1c0,0,0,0,0,0l-0.1,0.4
				c-0.2,0.7-2.3,1.9-4.3,1.9c-0.9,0-1.6-0.2-2.1-0.5C139.8,279,139.7,278.7,139.7,278.2z"/>
			<path class="st0" d="M170.3,265.8c-2.2,0-4.1,0.8-5.5,2.2c-0.6-1.4-1.8-2.2-3.5-2.2c-1.2,0-2.5,0.5-3.5,1.5c-1,1-1.8,2.4-2.2,4
				c-0.1,0.5,0,0.9,0.1,1.1c0.1,0.2,0.4,0.5,0.9,0.6l1.3,0.3l0.1,0c0.3,0,1.2,0,1.5-1l0,0c0.3-1,0.8-2,1.5-2.1c0,0.1,0,0.5-0.1,1
				l-2.5,14.4h-1.7c-0.9,0-1.5,0.5-1.7,1.4l-0.2,1.1c-0.1,0.6,0.1,1,0.3,1.3c0.3,0.3,0.7,0.5,1.1,0.5h8c0.8,0,1.5-0.5,1.6-1.4
				l0.2-1.1l0,0c0.1-0.5,0-0.9-0.3-1.3c-0.3-0.3-0.7-0.5-1.2-0.5h-2.1l0.6-3.7c1.1,1.2,2.8,2.1,5,2.1c4.5,0,9.2-4,9.2-10.7
				c0-2.4-0.7-4.3-2-5.6C173.9,266.5,172.3,265.8,170.3,265.8z M167.7,279.7c-3.2,0-3.5-2.5-3.5-3.5c0-1.5,0.6-3,1.7-4.2
				c1.1-1.2,2.5-1.9,4-1.9c3,0,3.3,2.7,3.3,3.5c0,1.1-0.3,2.7-1.3,4C170.8,279,169.4,279.7,167.7,279.7z"/>
			<path class="st0" d="M195.4,268.1c-1.4-1-3.8-2.3-7-2.3c-4.5,0-7.6,2.3-7.6,5.8c0,3.9,3.9,4.8,5.9,5.3c0.2,0,0.3,0.1,0.5,0.1
				c1.4,0.3,3.3,0.7,3.3,1.4c0,0.6-1.3,1.5-3.6,1.5c-1.9,0-3.9-0.4-4.2-3l0-0.1c-0.1-0.3-0.3-0.6-0.5-0.8c-0.3-0.2-0.6-0.2-1-0.1
				l-0.4,0.1c-0.3,0.1-0.8,0.3-0.9,1l-0.6,3.3c-0.1,0.7,0.2,1,0.4,1.3c1.4,1.6,4.1,2.5,7.2,2.5c2,0,3.9-0.5,5.2-1.4
				c1.6-1.1,2.5-2.7,2.5-4.5c0-1.5-0.6-2.8-1.9-3.6c-1-0.7-2.3-1.1-4.2-1.5c-3.1-0.6-3.7-0.9-3.7-1.5c0-0.7,1-1.5,3.3-1.5
				c1.9,0,4.1,0.7,4.3,2.5c0,0.4,0.2,0.7,0.5,0.9c0.3,0.2,0.7,0.3,1.1,0.2l0.5-0.1l0.1,0c0.5-0.2,0.7-0.6,0.7-0.9l0.5-3.1
				C196,268.9,195.8,268.4,195.4,268.1z"/>
			<path class="st0" d="M220,276.8l-1.3-0.3l-0.1,0c-0.3,0-1.2,0-1.5,1l0,0c-0.3,1-0.8,2.1-1.5,2.1c0-0.1-0.1-0.4,0.1-1l1.4-8.2h2.1
				c0.8,0,1.5-0.6,1.7-1.4l0.2-1.1c0.1-0.5,0-0.9-0.3-1.2c-0.3-0.4-0.7-0.6-1.2-0.6H212c-0.8,0-1.5,0.6-1.6,1.4l-0.2,1.1
				c-0.1,0.5,0,0.9,0.3,1.3c0.3,0.3,0.7,0.5,1.2,0.5h1.4l-0.8,4.6c-0.5,2.7-2.6,4.7-5,4.7c-0.7,0-1.3-0.1-1.7-0.3
				c-0.4-0.2-0.4-0.4-0.4-0.6c0-1.2,0.5-2.9,1-4.5c0.5-1.6,1-3.2,1-4.4c0-2.4-1.6-4-4.1-4c-2.6,0-4.9,2.3-5.7,5.6
				c-0.1,0.5,0,0.9,0.1,1.1c0.1,0.2,0.4,0.5,0.9,0.6l1.4,0.3l0.1,0c0.3,0,1.2,0,1.5-1l0,0c0.3-1,0.9-2.1,1.6-2.1c0,0,0,0,0,0
				c0,0,0,0,0,0c0,0.7-0.4,2.1-0.9,3.4c-0.6,1.8-1.2,3.7-1.2,5.3c0,3.1,2.2,5.1,5.5,5.1c0.9,0,3.4-0.2,5.4-2.1
				c0.6,1.4,1.8,2.1,3.5,2.1c1.2,0,2.5-0.5,3.5-1.5c1-1,1.8-2.4,2.2-4c0.1-0.5,0-0.9-0.1-1.1C220.8,277.1,220.5,276.9,220,276.8z"/>
			<path class="st0" d="M232.8,276.8l-1.4-0.3l-0.1,0c-0.3,0-1.2,0-1.5,1l0,0c-0.3,1.2-1,2.1-1.5,2.1c-0.3,0-0.4-0.1-0.4-0.1
				c0,0-0.1-0.2,0-0.7l3.3-16.9c0.1-0.5,0-1.1-0.3-1.4c-0.3-0.4-0.8-0.6-1.3-0.6H225c-0.9,0-1.5,0.6-1.6,1.4l-0.2,1.1
				c-0.1,0.5,0,0.9,0.3,1.3c0.3,0.3,0.7,0.5,1.2,0.5h2l-2.8,14c-0.4,1.7-0.1,3.2,0.8,4.3c0.5,0.7,1.6,1.5,3.4,1.5
				c2.7,0,5.1-2.2,5.9-5.6c0.1-0.5,0-0.9-0.1-1.1C233.6,277.1,233.3,276.8,232.8,276.8z"/>
			<path class="st0" d="M249.9,276.5c1.7-1.1,2.6-2.7,2.6-4.6c0-1.6-0.6-3.1-1.8-4.3c-1.3-1.2-3-1.8-5.1-1.8c-2.7,0-5.2,1.1-7.1,3
				c-1.9,1.9-3,4.6-3,7.4c0,2.4,0.8,4.4,2.3,5.8c1.4,1.3,3.3,2,5.6,2c2.8,0,5.7-1.3,6.6-2.2c0.3-0.3,0.5-0.7,0.6-1l0.4-2.1
				c0.1-0.4,0-0.9-0.4-1.2l-0.1-0.1l-0.3-0.2c-0.6-0.3-1.2-0.2-1.7,0.3c-1.4,1.6-2.9,2.2-5,2.2c-2.2,0-3.7-1.2-3.9-3.1
				c1.4,0.8,3.2,1.2,5.2,1.2C246.7,277.8,248.5,277.4,249.9,276.5z M245.2,270.1c1.8,0,3.2,0.8,3.2,1.8c0,1.1-2,1.7-3.9,1.7
				c-1.7,0-3.2-0.4-4-1C241.4,271.3,243,270.1,245.2,270.1z"/>
		</g>
	</g>
</g>
</svg>
