<svg version="1.1" id="Layer_1" xmlns="http://www.w3.org/2000/svg" xmlns:xlink="http://www.w3.org/1999/xlink" x="0px" y="0px"
	 viewBox="0 0 198.4 68" style="enable-background:new 0 0 198.4 68;" xml:space="preserve">
<g>
	<g>
		<g>
			<path fill="currentColor" d="M2.2,34.1h12.5c1.3,0,2.1-0.7,2.3-2l0.3-1.6l0,0c0.1-0.7,0-1.3-0.4-1.8c-0.3-0.3-0.8-0.7-1.7-0.7h-3l1.5-8.8
				h14.6L26.8,28h-3.5c-1.3,0-2.2,0.7-2.4,2l-0.3,1.6l0,0c-0.1,0.9,0.2,1.5,0.4,1.8c0.3,0.3,0.8,0.7,1.7,0.7h12.5
				c1.3,0,2.1-0.7,2.3-2l0.3-1.6l0,0c0.1-0.7,0-1.3-0.4-1.8c-0.3-0.3-0.8-0.7-1.7-0.7h-3l3.8-21.6H40c0.7,0,2-0.2,2.4-1.9l0.3-1.7
				c0.1-0.7,0-1.3-0.4-1.8c-0.3-0.3-0.8-0.7-1.7-0.7H28.2c-1.3,0-2.2,0.8-2.4,2l-0.3,1.5c-0.2,0.9,0.1,1.5,0.3,1.8
				c0.3,0.4,0.8,0.8,1.8,0.8h3l-1.2,6.8H14.8L16,6.4h3.5c0.7,0,2-0.2,2.4-1.9l0.3-1.7c0.1-0.7,0-1.3-0.4-1.8
				c-0.3-0.3-0.8-0.7-1.7-0.7H7.6c-1.3,0-2.2,0.8-2.4,2L4.9,3.8C4.7,4.7,5,5.3,5.2,5.6C5.5,6,6,6.4,7,6.4h3L6.2,28H2.7
				c-1.3,0-2.2,0.7-2.4,2L0,31.6l0,0c-0.1,0.9,0.2,1.5,0.4,1.8C0.7,33.7,1.3,34.1,2.2,34.1z"/>
			<path fill="currentColor" d="M44.3,31.5c1.9,2,4.8,3.1,8.6,3.1c4.7,0,8.7-1.7,11.3-4.9c2.2-2.7,3.5-6.4,3.5-10.3
				c0-6.9-4.1-10.9-11.2-10.9c-4.7,0-8.7,1.7-11.3,5c-2.2,2.7-3.5,6.4-3.5,10.3C41.6,27.1,42.5,29.7,44.3,31.5z M56.3,14.7
				c3.3,0,5.5,0.8,5.5,5c0,1.4-0.2,3.9-1.8,6c-1.5,1.9-3.8,2.9-6.9,2.9c-3.3,0-5.5-0.8-5.5-4.9c0-1.4,0.2-3.9,1.8-6
				C50.9,15.6,53.2,14.7,56.3,14.7z"/>
			<path fill="currentColor" d="M73.4,6.3h2.9l-4,20.1c-0.5,2.4-0.1,4.6,1.1,6.1c0.8,1,2.2,2.1,4.8,2.1c3.9,0,7.2-3.2,8.4-8
				c0.2-0.7,0-1.2-0.2-1.6c-0.2-0.3-0.6-0.7-1.3-0.8l-2-0.4H83c-0.5-0.1-1.7-0.1-2.1,1.4l0,0c-0.5,1.8-1.4,3.1-2.2,3.1
				c-0.4,0-0.5-0.1-0.6-0.1c0-0.1-0.1-0.3,0-1l4.7-24.3c0.2-0.8,0-1.5-0.4-2.1C82,0.3,81.3,0,80.5,0h-6.6c-1.2,0-2.1,0.8-2.3,2
				l-0.3,1.6c-0.1,0.7,0,1.4,0.4,1.8C72.1,6.1,72.7,6.3,73.4,6.3z"/>
			<path fill="currentColor" d="M96.7,8.5c2.5,0,4.6-2,4.6-4.4c0-2.2-1.8-3.9-4.1-3.9c-2.5,0-4.6,2-4.6,4.4C92.6,6.8,94.4,8.5,96.7,8.5z"/>
			<path fill="currentColor" d="M104.2,26.6c0.2-0.7,0-1.2-0.2-1.6c-0.2-0.3-0.6-0.7-1.3-0.8l-2-0.4h-0.1c-0.5-0.1-1.7-0.1-2.1,1.4l0,0
				c-0.4,1.5-1.3,3.1-2.3,3.1l0,0c0-0.2,0-0.5,0.1-1.2l2.8-15.2v-0.1c0.1-1-0.2-1.7-0.5-2C98.2,9.3,97.5,9,96.8,9h-6.6
				c-1.2,0-2.1,0.8-2.3,2l-0.3,1.6c-0.1,0.7,0,1.4,0.4,1.8c0.4,0.5,1,0.7,1.8,0.7h2.9l-2.2,11.5c-0.5,2.6-0.1,4.7,1.1,6
				c0.7,0.8,2,1.8,4.4,1.8C99.6,34.6,103,31.3,104.2,26.6z"/>
			<path fill="currentColor" d="M116.4,34.6c3.1,0,5.9-1.1,8-3.1c0.8,2,2.6,3.1,5,3.1c1.8,0,3.6-0.8,5.1-2.2c1.5-1.4,2.6-3.5,3.1-5.8
				c0.2-0.7,0-1.2-0.2-1.6c-0.2-0.3-0.6-0.7-1.3-0.8l-1.8-0.4h-0.1c-0.5-0.1-1.7-0.1-2.1,1.4l0,0c-0.4,1.4-1.2,3-2.2,3.1
				c0-0.2-0.1-0.6,0.1-1.5l4.3-24.2l0,0c0.1-0.9-0.2-1.5-0.5-1.8c-0.4-0.5-1-0.7-1.6-0.7h-8.5c-1.2,0-2.1,0.8-2.3,2l-0.3,1.6
				c-0.1,0.7,0,1.4,0.4,1.8c0.4,0.5,1,0.7,1.8,0.7h4.5l-0.9,5c-1.6-1.6-3.9-2.8-6.9-2.8c-3.3,0-6.6,1.5-9.1,4.1
				c-2.7,2.9-4.2,6.8-4.2,11.2c0,3.4,1,6.2,2.9,8.1C111.2,33.7,113.6,34.6,116.4,34.6z M120,14.7c1.6,0,5.2,0.5,5.2,5
				c0,2.1-0.9,4.4-2.4,6c-1.6,1.7-3.6,2.7-5.8,2.7c-4.4,0-4.7-3.8-4.7-5c0-1.6,0.5-3.9,1.9-5.8C115.6,15.7,117.6,14.7,120,14.7z"/>
			<path fill="currentColor" d="M148.7,34.6c2.6,0,5.3-1,7.4-2.5c1,1.6,2.7,2.5,4.9,2.5c3.7,0,7.1-3.3,8.2-8c0.2-0.7,0-1.2-0.2-1.6
				c-0.2-0.3-0.6-0.7-1.3-0.8l-2-0.4h-0.1c-1.5-0.2-2,0.9-2.1,1.4l0,0c-0.4,1.5-1.3,3.1-2.3,3.1l0,0c0-0.1,0-0.3,0.1-0.6
				c0.2-1.1,0.6-2.4,1-3.8c0.8-2.7,1.6-5.5,1.6-7.4c0-2.4-1-8.1-10.2-8.1c-3.5,0-6.6,0.9-9.5,3h-0.1c-0.4,0.3-0.7,0.8-0.9,1.3
				l-0.5,3.1c-0.1,0.8,0.2,1.6,0.8,1.9c0.7,0.4,1.6,0.3,2.2-0.2l0.1-0.1c1.5-1.4,4.6-2.8,7.9-2.8c1.9,0,2.9,0.4,3.4,0.7
				c0.6,0.3,0.8,0.7,0.8,1.4s-0.1,1.4-0.4,2.6c-1.8-1.2-4.1-1.9-6.6-1.9c-2.8,0-5.5,0.8-7.4,2.4c-2.2,1.7-3.4,4.1-3.4,6.9
				C140,31.5,143.5,34.6,148.7,34.6z M156,25.1L156,25.1l-0.2,0.7c-0.3,1-3.4,2.7-6.1,2.7c-1.3,0-2.3-0.2-3-0.7
				c-0.5-0.3-0.8-0.8-0.8-1.5s1-2.8,5.2-2.8C153.6,23.6,155.8,24.6,156,25.1z"/>
			<path fill="currentColor" d="M171.6,18.9l2,0.4h0.1c0.5,0.1,1.7,0.1,2.1-1.4l0,0c0.4-1.5,1.3-3.1,2.3-3.1c0,0,0,0,0.1,0c0,0,0,0,0,0.1
				c0,0.9-0.6,3-1.2,4.8c-0.8,2.6-1.6,5.3-1.7,7.3c-3,1.5-4.9,4.4-4.9,7.5c0,2.3,0.8,4.3,2.4,5.9c1.5,1.5,4.5,3.3,10,3.3
				c7.3,0,14.7-4.9,14.7-14.2c0-1.8-0.3-3.8-1-5.9c1.2-3.2,1.9-6.3,1.9-8.8c0-3.8-1.8-6.3-4.7-6.3c-2.3,0-3.8,1.9-3.8,4.7
				c0,1.8,0.7,4.1,2.2,5.6c-0.6,2.6-1.7,5-3.4,6.8c-1.6,1.8-3.6,2.9-5.4,2.9s-2-0.9-2-1.6c0-1.4,0.8-3.9,1.5-6.2
				c0.8-2.5,1.5-4.8,1.5-6.4c0-3.5-2.4-5.8-5.9-5.8c-3.7,0-7.1,3.3-8.2,8c-0.2,0.7,0,1.2,0.2,1.6C170.5,18.4,170.9,18.8,171.6,18.9z
				 M176.4,34.2c0-0.8,0.3-1.4,0.7-1.9c1.4,1.5,3.4,2.3,5.8,2.3c3.1,0,5.9-1.1,8.4-3.4c-1,3.8-4.4,6.3-8.9,6.3
				C178.3,37.6,176.4,35.9,176.4,34.2z"/>
			<path fill="currentColor" d="M43.5,37.7c-3.5,0-6.6,1.1-8.9,3c-2.4,2.1-3.9,5.1-4.4,9c-0.5,3.7,0.2,6.8,2.1,9c1.9,2.2,4.9,3.3,8.6,3.3
				c4.9,0,8.5-2,10.1-3.8c0.2-0.3,0.4-0.6,0.4-0.9l0.6-3.6c0.1-0.4,0-0.7-0.2-1c-0.2-0.3-0.6-0.5-1-0.5h-0.5c-0.5,0-1,0.3-1.2,0.7
				V53c-1.2,2.9-4.3,4.6-8.2,4.6c-1.7,0-4-0.3-5.4-2c-1.1-1.3-1.5-3.2-1.2-5.7c0.4-2.7,1.4-4.8,3.1-6.2c1.5-1.2,3.5-1.8,5.7-1.8
				c1.7,0,4,0.3,5.4,1.7c0.8,0.9,1.2,2,1.1,3.6l0,0c0,0.5,0.3,0.9,0.4,1c0.2,0.2,0.6,0.3,1.1,0.2l0.7-0.2c0.5-0.1,0.9-0.6,1-1
				l0.8-4.2c0.1-0.4,0-0.9-0.3-1.2C52.4,40.5,49,37.7,43.5,37.7z"/>
			<path fill="currentColor" d="M75,55.4c-0.1-0.2-0.4-0.5-0.9-0.6l-1.4-0.3h-0.1c-1-0.1-1.4,0.7-1.5,1l0,0c-0.3,1-0.9,2.1-1.6,2.1l0,0
				c0-0.1,0-0.2,0-0.4c0.2-0.8,0.4-1.7,0.7-2.7c0.5-1.9,1.1-3.8,1.1-5.1c0-1.7-0.7-5.6-7.1-5.6c-2.5,0-4.6,0.7-6.7,2.1l0,0
				c-0.3,0.2-0.5,0.6-0.6,0.9l-0.4,2.1c-0.1,0.6,0.1,1.1,0.6,1.4c0.5,0.3,1.1,0.2,1.5-0.1h0.1c1.1-1,3.2-2,5.5-2
				c1.3,0,2,0.2,2.4,0.5c0.4,0.2,0.6,0.5,0.6,1c0,0.5-0.1,1-0.3,1.8c-1.3-0.9-2.9-1.3-4.6-1.3c-2,0-3.8,0.6-5.2,1.7
				c-1.5,1.2-2.4,2.9-2.4,4.8c0,3.3,2.4,5.5,6.1,5.5c1.8,0,3.7-0.7,5.2-1.8c0.7,1.1,1.9,1.8,3.4,1.8c2.6,0,4.9-2.3,5.7-5.6
				C75.3,56,75.1,55.7,75,55.4z M58.9,56.3c0-0.5,0.7-1.9,3.6-1.9c1.7,0,3.2,0.7,3.3,1.1l0,0l-0.1,0.4c-0.2,0.7-2.3,1.9-4.3,1.9
				c-0.9,0-1.6-0.2-2.1-0.5C59,57.1,58.9,56.8,58.9,56.3z"/>
			<path fill="currentColor" d="M89.5,43.9c-2.2,0-4.1,0.8-5.5,2.2c-0.6-1.4-1.8-2.2-3.5-2.2c-1.2,0-2.5,0.5-3.5,1.5c-1,1-1.8,2.4-2.2,4
				c-0.1,0.5,0,0.9,0.1,1.1c0.1,0.2,0.4,0.5,0.9,0.6l1.3,0.3h0.1c0.3,0,1.2,0,1.5-1l0,0c0.3-1,0.8-2,1.5-2.1c0,0.1,0,0.5-0.1,1
				l-2.5,14.4h-1.7c-0.9,0-1.5,0.5-1.7,1.4L74,66.2c-0.1,0.6,0.1,1,0.3,1.3c0.3,0.3,0.7,0.5,1.1,0.5h8c0.8,0,1.5-0.5,1.6-1.4
				l0.2-1.1l0,0c0.1-0.5,0-0.9-0.3-1.3c-0.3-0.3-0.7-0.5-1.2-0.5h-2.1l0.6-3.7c1.1,1.2,2.8,2.1,5,2.1c4.5,0,9.2-4,9.2-10.7
				c0-2.4-0.7-4.3-2-5.6C93.1,44.6,91.5,43.9,89.5,43.9z M86.9,57.8c-3.2,0-3.5-2.5-3.5-3.5c0-1.5,0.6-3,1.7-4.2
				c1.1-1.2,2.5-1.9,4-1.9c3,0,3.3,2.7,3.3,3.5c0,1.1-0.3,2.7-1.3,4C90,57.1,88.6,57.8,86.9,57.8z"/>
			<path fill="currentColor" d="M114.6,46.2c-1.4-1-3.8-2.3-7-2.3c-4.5,0-7.6,2.3-7.6,5.8c0,3.9,3.9,4.8,5.9,5.3c0.2,0,0.3,0.1,0.5,0.1
				c1.4,0.3,3.3,0.7,3.3,1.4c0,0.6-1.3,1.5-3.6,1.5c-1.9,0-3.9-0.4-4.2-3v-0.1c-0.1-0.3-0.3-0.6-0.5-0.8c-0.3-0.2-0.6-0.2-1-0.1
				l-0.4,0.1c-0.3,0.1-0.8,0.3-0.9,1l-0.6,3.3c-0.1,0.7,0.2,1,0.4,1.3c1.4,1.6,4.1,2.5,7.2,2.5c2,0,3.9-0.5,5.2-1.4
				c1.6-1.1,2.5-2.7,2.5-4.5c0-1.5-0.6-2.8-1.9-3.6c-1-0.7-2.3-1.1-4.2-1.5c-3.1-0.6-3.7-0.9-3.7-1.5c0-0.7,1-1.5,3.3-1.5
				c1.9,0,4.1,0.7,4.3,2.5c0,0.4,0.2,0.7,0.5,0.9c0.3,0.2,0.7,0.3,1.1,0.2l0.5-0.1h0.1c0.5-0.2,0.7-0.6,0.7-0.9l0.5-3.1
				C115.2,47,115,46.5,114.6,46.2z"/>
			<path fill="currentColor" d="M139.2,54.9l-1.3-0.3h-0.1c-0.3,0-1.2,0-1.5,1l0,0c-0.3,1-0.8,2.1-1.5,2.1c0-0.1-0.1-0.4,0.1-1l1.4-8.2h2.1
				c0.8,0,1.5-0.6,1.7-1.4l0.2-1.1c0.1-0.5,0-0.9-0.3-1.2c-0.3-0.4-0.7-0.6-1.2-0.6h-7.6c-0.8,0-1.5,0.6-1.6,1.4l-0.2,1.1
				c-0.1,0.5,0,0.9,0.3,1.3c0.3,0.3,0.7,0.5,1.2,0.5h1.4l-0.8,4.6c-0.5,2.7-2.6,4.7-5,4.7c-0.7,0-1.3-0.1-1.7-0.3
				c-0.4-0.2-0.4-0.4-0.4-0.6c0-1.2,0.5-2.9,1-4.5c0.5-1.6,1-3.2,1-4.4c0-2.4-1.6-4-4.1-4c-2.6,0-4.9,2.3-5.7,5.6
				c-0.1,0.5,0,0.9,0.1,1.1c0.1,0.2,0.4,0.5,0.9,0.6l1.4,0.3h0.1c0.3,0,1.2,0,1.5-1l0,0c0.3-1,0.9-2.1,1.6-2.1l0,0l0,0
				c0,0.7-0.4,2.1-0.9,3.4c-0.6,1.8-1.2,3.7-1.2,5.3c0,3.1,2.2,5.1,5.5,5.1c0.9,0,3.4-0.2,5.4-2.1c0.6,1.4,1.8,2.1,3.5,2.1
				c1.2,0,2.5-0.5,3.5-1.5c1-1,1.8-2.4,2.2-4c0.1-0.5,0-0.9-0.1-1.1C140,55.2,139.7,55,139.2,54.9z"/>
			<path fill="currentColor" d="M152,54.9l-1.4-0.3h-0.1c-0.3,0-1.2,0-1.5,1l0,0c-0.3,1.2-1,2.1-1.5,2.1c-0.3,0-0.4-0.1-0.4-0.1
				s-0.1-0.2,0-0.7l3.3-16.9c0.1-0.5,0-1.1-0.3-1.4c-0.3-0.4-0.8-0.6-1.3-0.6h-4.6c-0.9,0-1.5,0.6-1.6,1.4l-0.2,1.1
				c-0.1,0.5,0,0.9,0.3,1.3c0.3,0.3,0.7,0.5,1.2,0.5h2l-2.8,14c-0.4,1.7-0.1,3.2,0.8,4.3c0.5,0.7,1.6,1.5,3.4,1.5
				c2.7,0,5.1-2.2,5.9-5.6c0.1-0.5,0-0.9-0.1-1.1C152.8,55.2,152.5,54.9,152,54.9z"/>
			<path fill="currentColor" d="M169.1,54.6c1.7-1.1,2.6-2.7,2.6-4.6c0-1.6-0.6-3.1-1.8-4.3c-1.3-1.2-3-1.8-5.1-1.8c-2.7,0-5.2,1.1-7.1,3
				c-1.9,1.9-3,4.6-3,7.4c0,2.4,0.8,4.4,2.3,5.8c1.4,1.3,3.3,2,5.6,2c2.8,0,5.7-1.3,6.6-2.2c0.3-0.3,0.5-0.7,0.6-1l0.4-2.1
				c0.1-0.4,0-0.9-0.4-1.2l-0.1-0.1l-0.3-0.2c-0.6-0.3-1.2-0.2-1.7,0.3c-1.4,1.6-2.9,2.2-5,2.2c-2.2,0-3.7-1.2-3.9-3.1
				c1.4,0.8,3.2,1.2,5.2,1.2C165.9,55.9,167.7,55.5,169.1,54.6z M164.4,48.2c1.8,0,3.2,0.8,3.2,1.8c0,1.1-2,1.7-3.9,1.7
				c-1.7,0-3.2-0.4-4-1C160.6,49.4,162.2,48.2,164.4,48.2z"/>
		</g>
	</g>
</g>
</svg>
