<svg version="1.1" id="Layer_1" xmlns="http://www.w3.org/2000/svg" xmlns:xlink="http://www.w3.org/1999/xlink" x="0px" y="0px"
	 viewBox="0 0 242.9 158.9" style="enable-background:new 0 0 242.9 158.9;" xml:space="preserve">
<g id="로고">
	<g>
		<g>
			<path fill="currentColor" d="M6.2,116.7H21c1.5,0,2.5-0.9,2.8-2.4l0.4-1.9l0,0c0.1-0.9,0-1.6-0.5-2.2c-0.3-0.4-0.9-0.8-2-0.8h-3.5L20,99
				h17.4l-1.9,10.4h-4.2c-1.5,0-2.6,0.9-2.8,2.4l-0.4,1.9l0,0c-0.2,1.1,0.2,1.8,0.5,2.1c0.3,0.4,1,0.9,2.1,0.9h14.8
				c1.5,0,2.5-0.9,2.8-2.4l0.4-1.9l0,0c0.1-0.9,0-1.6-0.5-2.2c-0.3-0.4-0.9-0.8-2-0.8h-3.5l4.6-25.7h4.2c0.8,0,2.3-0.3,2.8-2.3
				l0.3-2c0.1-0.9,0-1.6-0.5-2.2c-0.3-0.4-0.9-0.8-2-0.8h-15c-1.5,0-2.6,0.9-2.8,2.4L34,80.6c-0.2,1,0.1,1.7,0.4,2.1
				c0.3,0.4,1,0.9,2.1,0.9H40l-1.4,8.1H21.2l1.4-8.1h4.2c0.8,0,2.3-0.3,2.8-2.3l0.3-2c0.1-0.9,0-1.6-0.5-2.2c-0.3-0.4-0.9-0.8-2-0.8
				H12.6c-1.5,0-2.6,0.9-2.8,2.4l-0.3,1.8c-0.2,1,0.1,1.7,0.4,2.1c0.3,0.4,1,0.9,2.1,0.9h3.5l-4.6,25.7H6.7c-1.5,0-2.6,0.9-2.8,2.4
				l-0.4,1.9l0,0c-0.2,1.1,0.2,1.8,0.5,2.1C4.4,116.3,5.1,116.7,6.2,116.7z"/>
			<path fill="currentColor" d="M56.2,113.7c2.3,2.4,5.7,3.7,10.2,3.7c5.6,0,10.3-2,13.5-5.9c2.7-3.2,4.1-7.6,4.1-12.2
				c0-8.2-4.9-12.9-13.4-12.9c-5.6,0-10.3,2-13.5,5.9c-2.7,3.2-4.1,7.6-4.1,12.2C53,108.4,54.1,111.5,56.2,113.7z M70.4,93.7
				c3.9,0,6.5,1,6.5,5.9c0,1.6-0.3,4.7-2.2,7.1c-1.8,2.3-4.5,3.4-8.2,3.4c-3.9,0-6.5-1-6.5-5.8c0-1.6,0.3-4.7,2.2-7.1
				C64,94.8,66.8,93.7,70.4,93.7z"/>
			<path fill="currentColor" d="M90.8,83.7h3.4l-4.8,23.9c-0.6,2.9-0.1,5.5,1.3,7.3c0.9,1.1,2.7,2.5,5.7,2.5c4.6,0,8.6-3.8,10-9.6
				c0.2-0.9,0-1.5-0.2-1.9s-0.7-0.8-1.6-1l-2.4-0.5h-0.1c-0.6-0.1-2-0.1-2.5,1.7v0.1c-0.5,2.1-1.7,3.7-2.6,3.7
				c-0.5,0-0.7-0.1-0.7-0.1c0-0.1-0.2-0.4,0-1.2l5.6-28.8c0.2-0.9,0-1.8-0.5-2.4c-0.5-0.6-1.3-1-2.2-1h-7.8c-1.5,0-2.5,0.9-2.8,2.4
				l-0.3,1.9c-0.1,0.9,0,1.6,0.5,2.2C89.3,83.4,90,83.7,90.8,83.7z"/>
			<path fill="currentColor" d="M118.5,86.3c2.9,0,5.4-2.4,5.4-5.2c0-2.6-2.2-4.7-4.9-4.7c-2.9,0-5.4,2.4-5.4,5.2
				C113.6,84.3,115.8,86.3,118.5,86.3z"/>
			<path fill="currentColor" d="M127.4,107.8c0.2-0.9,0-1.5-0.2-1.9s-0.7-0.8-1.6-1l-2.4-0.5h-0.1c-0.6-0.1-2-0.1-2.5,1.7v0.1
				c-0.5,1.8-1.5,3.7-2.7,3.7l0,0c0-0.2,0-0.6,0.1-1.4l3.4-18v-0.1c0.2-1.2-0.2-2-0.6-2.4c-0.5-0.6-1.3-0.9-2.1-0.9h-7.8
				c-1.5,0-2.5,0.9-2.8,2.4l-0.3,1.9c-0.1,0.9,0,1.6,0.5,2.2c0.5,0.6,1.2,0.8,2.1,0.8h3.5l-2.6,13.6c-0.6,3-0.1,5.5,1.3,7.2
				c0.8,1,2.4,2.1,5.2,2.1C122,117.4,126,113.4,127.4,107.8z"/>
			<path fill="currentColor" d="M141.9,117.4c3.7,0,7-1.3,9.5-3.7c0.9,2.4,3.1,3.7,5.9,3.7c2.1,0,4.3-0.9,6-2.6c1.8-1.7,3.1-4.1,3.7-6.9
				c0.2-0.9,0-1.5-0.2-1.9s-0.7-0.8-1.6-1l-2.2-0.5h-0.1c-0.6-0.1-2-0.1-2.5,1.7l0,0c-0.4,1.7-1.4,3.5-2.6,3.7
				c0-0.2-0.1-0.8,0.1-1.7l5.1-28.8l0,0c0.2-1.1-0.2-1.8-0.5-2.1c-0.5-0.5-1.2-0.8-1.9-0.8h-10.1c-1.5,0-2.5,0.9-2.8,2.4l-0.3,1.9
				c-0.1,0.9,0,1.6,0.5,2.2c0.5,0.6,1.2,0.8,2.1,0.8h5.4l-1.1,6c-1.9-1.9-4.6-3.3-8.2-3.3c-3.9,0-7.9,1.8-10.8,4.9
				c-3.2,3.4-5,8.1-5,13.3c0,4,1.2,7.4,3.5,9.6C135.8,116.3,138.6,117.4,141.9,117.4z M146.3,93.7c1.9,0,6.2,0.6,6.2,6
				c0,2.6-1,5.2-2.9,7.2c-1.9,2.1-4.3,3.2-6.8,3.2c-5.2,0-5.6-4.5-5.6-5.9c0-1.9,0.6-4.7,2.2-6.9C141.1,94.9,143.4,93.7,146.3,93.7z
				"/>
			<path fill="currentColor" d="M180.4,117.4c3.1,0,6.4-1.1,8.8-3c1.1,1.9,3.2,3,5.9,3c4.4,0,8.4-3.9,9.8-9.6c0.2-0.9,0-1.5-0.2-1.9
				s-0.7-0.8-1.6-1l-2.4-0.5h-0.1c-1.8-0.3-2.4,1.1-2.5,1.7v0.1c-0.5,1.8-1.5,3.7-2.7,3.7l0,0c0-0.1,0-0.4,0.1-0.7
				c0.3-1.3,0.7-2.9,1.2-4.5c0.9-3.2,1.9-6.5,1.9-8.8c0-2.9-1.2-9.6-12.2-9.6c-4.2,0-7.8,1.1-11.4,3.5l-0.1,0.1
				c-0.5,0.4-0.9,0.9-1,1.6l-0.6,3.7c-0.2,1,0.2,1.9,1,2.3c0.8,0.5,1.9,0.4,2.6-0.2l0.1-0.1c1.8-1.7,5.5-3.4,9.4-3.4
				c2.3,0,3.4,0.4,4,0.8c0.7,0.4,1,0.9,1,1.7s-0.2,1.7-0.5,3.1c-2.2-1.5-4.9-2.3-7.9-2.3c-3.4,0-6.5,1-8.9,2.8c-2.6,2-4,4.9-4,8.2
				C170,113.6,174.2,117.4,180.4,117.4z M189,106L189,106l-0.2,0.8c-0.4,1.2-4,3.2-7.3,3.2c-1.5,0-2.7-0.3-3.5-0.8
				c-0.6-0.4-0.9-1-0.9-1.8c0-0.9,1.1-3.3,6.2-3.3C186.1,104.2,188.8,105.4,189,106z"/>
			<path fill="currentColor" d="M207.6,98.7l2.4,0.5h0.1c0.6,0.1,2,0.1,2.5-1.7l0,0c0.5-1.8,1.5-3.7,2.7-3.7c0,0,0,0,0.1,0c0,0,0,0,0,0.1
				c0,1-0.8,3.5-1.4,5.8c-0.9,3.1-1.9,6.3-2,8.7c-3.6,1.8-5.8,5.2-5.9,8.9c0,2.7,0.9,5.1,2.8,7c1.8,1.8,5.3,4,11.9,4
				c8.7,0,17.5-5.8,17.5-16.9c0-2.1-0.4-4.5-1.2-7c1.5-3.8,2.3-7.5,2.3-10.5c0-4.5-2.2-7.4-5.5-7.4c-2.7,0-4.6,2.2-4.6,5.5
				c0,2.2,0.8,4.9,2.6,6.6c-0.7,3.1-2,6-4,8.1c-1.9,2.2-4.3,3.4-6.4,3.4c-2.2,0-2.4-1.1-2.4-1.9c0-1.7,0.9-4.7,1.7-7.3
				c0.9-2.9,1.7-5.7,1.7-7.6c0-4.1-2.8-6.9-7-6.9c-4.4,0-8.4,3.9-9.8,9.6c-0.2,0.9,0,1.5,0.2,1.9C206.3,98.1,206.8,98.6,207.6,98.7z
				 M213.3,116.9c0-0.9,0.3-1.7,0.9-2.3c1.6,1.7,4.1,2.7,6.9,2.7c3.7,0,7-1.4,9.9-4c-1.1,4.5-5.3,7.5-10.6,7.5
				C215.5,120.9,213.3,118.9,213.3,116.9z"/>
			<path fill="currentColor" d="M55.2,121c-4.2,0-7.8,1.3-10.5,3.6c-2.8,2.5-4.6,6.1-5.3,10.7c-0.6,4.4,0.2,8.1,2.5,10.7s5.8,4,10.2,4
				c5.9,0,10.1-2.4,12-4.6c0.3-0.3,0.5-0.7,0.5-1.1l0.7-4.2c0.1-0.4,0-0.9-0.3-1.2c-0.3-0.3-0.7-0.5-1.2-0.5h-0.5
				c-0.6,0-1.2,0.3-1.4,0.9v0.1c-1.5,3.4-5.1,5.5-9.7,5.5c-2,0-4.8-0.4-6.4-2.3c-1.3-1.5-1.8-3.8-1.4-6.8c0.5-3.2,1.7-5.7,3.7-7.3
				c1.8-1.4,4.1-2.2,6.8-2.2c2,0,4.8,0.3,6.4,2c1,1,1.4,2.4,1.4,4.2l0,0c0,0.6,0.3,1,0.5,1.2s0.7,0.4,1.3,0.3l0.9-0.2
				c0.6-0.2,1.1-0.7,1.2-1.2l0.9-5c0.1-0.5,0-1-0.3-1.5C65.8,124.3,61.8,121,55.2,121z"/>
			<path fill="currentColor" d="M92.7,142.1c-0.2-0.3-0.5-0.6-1.1-0.7l-1.7-0.3h-0.1c-1.2-0.2-1.6,0.8-1.8,1.2l0,0c-0.3,1.2-1,2.6-1.9,2.6
				l0,0c0-0.1,0-0.3,0.1-0.5c0.2-0.9,0.5-2,0.8-3.2c0.6-2.2,1.3-4.6,1.3-6.1c0-2-0.8-6.7-8.5-6.7c-2.9,0-5.4,0.8-7.9,2.4h-0.1
				c-0.4,0.3-0.6,0.7-0.7,1.1l-0.4,2.5c-0.1,0.7,0.1,1.3,0.7,1.6c0.6,0.3,1.3,0.3,1.8-0.2l0.1-0.1c1.3-1.2,3.8-2.3,6.6-2.3
				c1.6,0,2.4,0.3,2.8,0.5c0.5,0.3,0.7,0.6,0.7,1.2c0,0.5-0.1,1.2-0.4,2.1c-1.5-1-3.4-1.6-5.5-1.6c-2.3,0-4.5,0.7-6.2,2
				c-1.8,1.4-2.8,3.4-2.8,5.7c0,3.9,2.9,6.5,7.2,6.5c2.2,0,4.4-0.8,6.1-2.1c0.8,1.3,2.2,2.1,4.1,2.1c3.1,0,5.9-2.7,6.8-6.7
				C93.1,142.8,92.9,142.4,92.7,142.1z M73.5,143.2c0-0.6,0.8-2.3,4.3-2.3c2,0,3.9,0.8,4,1.3l0,0l-0.1,0.5c-0.2,0.9-2.8,2.3-5.1,2.3
				c-1.1,0-1.9-0.2-2.5-0.5C73.7,144.1,73.5,143.8,73.5,143.2z"/>
			<path fill="currentColor" d="M110,128.4c-2.6,0-4.9,0.9-6.6,2.6c-0.7-1.7-2.1-2.6-4.2-2.6c-1.5,0-3,0.7-4.2,1.8c-1.2,1.2-2.1,2.9-2.6,4.8
				c-0.2,0.6,0,1,0.2,1.3s0.5,0.6,1.1,0.7l1.5,0.3h0.1c0.4,0.1,1.4,0.1,1.8-1.2l0,0c0.3-1.2,1-2.4,1.8-2.5c0,0.2,0.1,0.6-0.1,1.2
				l-3,17.2h-2c-1.1,0-1.8,0.6-2,1.7l-0.2,1.3c-0.1,0.8,0.1,1.2,0.4,1.5c0.3,0.4,0.8,0.6,1.3,0.6h9.5c1,0,1.8-0.7,1.9-1.7l0.3-1.3
				l0,0c0.1-0.6,0-1.1-0.3-1.5s-0.8-0.6-1.5-0.6h-2.5l0.8-4.4c1.3,1.4,3.3,2.5,5.9,2.5c5.4,0,10.9-4.8,10.9-12.7
				c0-2.8-0.8-5.1-2.4-6.7C114.3,129.2,112.3,128.4,110,128.4z M106.9,144.9c-3.8,0-4.2-2.9-4.2-4.2c0-1.8,0.7-3.6,2-5
				s3-2.2,4.8-2.2c3.6,0,3.9,3.2,3.9,4.1c0,1.3-0.4,3.2-1.6,4.8C110.6,144.1,108.9,144.9,106.9,144.9z"/>
			<path fill="currentColor" d="M139.8,131.2c-1.7-1.2-4.5-2.7-8.3-2.7c-5.4,0-9,2.8-9,6.9c0,4.6,4.6,5.7,7.1,6.2c0.2,0,0.4,0.1,0.6,0.1
				c1.7,0.4,4,0.9,4,1.6s-1.5,1.8-4.3,1.8c-2.3,0-4.7-0.4-5-3.5v-0.1c-0.1-0.4-0.3-0.8-0.6-1s-0.8-0.3-1.2-0.2l-0.6,0.2
				c-0.4,0.1-0.9,0.4-1.1,1.2l-0.7,3.9c-0.1,0.8,0.2,1.2,0.5,1.5c1.7,1.8,4.9,3,8.6,3c2.4,0,4.6-0.6,6.2-1.7c1.9-1.3,3-3.2,3-5.3
				c0-1.8-0.8-3.3-2.3-4.3c-1.1-0.8-2.7-1.3-5-1.8c-3.7-0.8-4.4-1.1-4.4-1.8c0-0.9,1.2-1.7,3.9-1.7c2.3,0,4.9,0.8,5.2,3
				c0,0.4,0.2,0.8,0.6,1c0.4,0.3,0.8,0.3,1.3,0.2l0.6-0.2h0.1c0.6-0.2,0.8-0.7,0.9-1l0.6-3.7C140.6,132.1,140.3,131.5,139.8,131.2z"
				/>
			<path fill="currentColor" d="M169,141.4l-1.5-0.3h-0.1c-0.4-0.1-1.4-0.1-1.8,1.2l0,0c-0.3,1.2-1,2.5-1.8,2.5c0-0.2-0.1-0.5,0.1-1.2
				l1.7-9.7h2.4c1,0,1.8-0.7,2-1.6l0.3-1.3c0.1-0.5,0-1.1-0.4-1.5c-0.3-0.4-0.9-0.7-1.4-0.7h-8.9c-1,0-1.7,0.7-1.9,1.6l-0.3,1.3
				c-0.1,0.5,0,1.1,0.4,1.5c0.3,0.4,0.8,0.6,1.4,0.6h1.7l-0.9,5.4c-0.6,3.2-3.1,5.6-6,5.6c-0.9,0-1.6-0.1-2.1-0.4
				c-0.4-0.2-0.5-0.5-0.5-0.8c0-1.5,0.6-3.4,1.2-5.3c0.6-1.9,1.2-3.8,1.2-5.3c0-2.9-1.9-4.8-4.9-4.8c-3.1,0-5.9,2.7-6.8,6.7
				c-0.2,0.6,0,1,0.2,1.3s0.5,0.6,1.1,0.7l1.7,0.3h0.1c0.4,0.1,1.4,0.1,1.8-1.2l0,0c0.3-1.2,1-2.6,1.9-2.6l0,0l0,0
				c0,0.9-0.5,2.5-1,4.1c-0.7,2.2-1.4,4.4-1.4,6.2c0,3.7,2.6,6,6.5,6c1,0,4-0.2,6.5-2.5c0.7,1.6,2.2,2.5,4.1,2.5
				c1.5,0,3-0.7,4.2-1.8c1.2-1.2,2.1-2.9,2.6-4.8c0.2-0.6,0-1-0.2-1.3C170,141.9,169.6,141.5,169,141.4z"/>
			<path fill="currentColor" d="M184.3,141.4l-1.7-0.3h-0.1c-0.4-0.1-1.4-0.1-1.8,1.2l0,0c-0.4,1.5-1.2,2.6-1.8,2.6c-0.3,0-0.5-0.1-0.5-0.1
				s-0.1-0.3,0-0.8l3.9-20.1c0.1-0.6,0-1.3-0.4-1.7c-0.4-0.4-0.9-0.7-1.5-0.7H175c-1,0-1.8,0.7-1.9,1.7l-0.2,1.3
				c-0.1,0.6,0,1.1,0.3,1.5s0.8,0.6,1.4,0.6h2.4l-3.3,16.7c-0.4,2-0.1,3.8,0.9,5.1c0.6,0.8,1.9,1.7,4,1.7c3.2,0,6-2.7,7-6.7
				c0.2-0.6,0-1-0.2-1.3C185.2,141.9,184.9,141.5,184.3,141.4z"/>
			<path fill="currentColor" d="M204.6,141.1c2-1.3,3.1-3.2,3.1-5.5c0-1.9-0.8-3.7-2.2-5.1c-1.5-1.4-3.6-2.1-6-2.1c-3.2,0-6.2,1.3-8.5,3.6
				c-2.3,2.3-3.5,5.5-3.5,8.8c0,2.9,0.9,5.3,2.7,6.9c1.6,1.5,3.9,2.3,6.6,2.3c3.3,0,6.7-1.6,7.8-2.6c0.4-0.4,0.6-0.8,0.7-1.2
				l0.4-2.5c0.1-0.5,0-1-0.4-1.4l-0.1-0.1l-0.4-0.2c-0.7-0.4-1.5-0.3-2,0.4c-1.6,1.9-3.4,2.6-6,2.6s-4.3-1.4-4.6-3.7
				c1.7,0.9,3.8,1.4,6.1,1.4C200.8,142.7,203,142.2,204.6,141.1z M199,133.5c2.1,0,3.8,1,3.8,2.2c0,1.4-2.3,2.1-4.6,2.1
				c-2,0-3.8-0.5-4.8-1.2C194.5,135,196.4,133.5,199,133.5z"/>
		</g>
		<polygon fill="currentColor" points="129.1,33.9 149.6,30 129.1,26 136.9,14.6 125.4,22.3 121.5,1.9 117.6,22.3 106.1,14.6 113.9,26 
			93.4,30 113.9,33.9 106.1,45.4 117.6,37.6 121.5,58.1 125.4,37.6 136.9,45.4 		"/>
	</g>
</g>
</svg>
