<?xml version="1.0" encoding="utf-8"?>
<!-- Generator: Adobe Illustrator 28.1.0, SVG Export Plug-In . SVG Version: 6.00 Build 0)  -->
<svg version="1.1" id="Layer_1" xmlns="http://www.w3.org/2000/svg" xmlns:xlink="http://www.w3.org/1999/xlink" x="0px" y="0px"
	 viewBox="40 40 320 320" style="enable-background:new 0 0 360 512;" xml:space="preserve">
<style type="text/css">
	.st0{fill:#E4001C;}
	.st1{fill:#F8F8E5;}
	.st2{fill:#006A68;stroke:#F8F8E5;stroke-miterlimit:10;}
	.st3{fill:#F6F6E3;}
	.st4{fill:none;stroke:#E4001C;stroke-width:4;stroke-miterlimit:10;}
	.st5{fill:none;stroke:#D60D22;stroke-width:4;stroke-miterlimit:10;}
	
		.st6{clip-path:url(#SVGID_00000119103331997464770780000011792923865305768069_);fill:#F8F8E5;stroke:#E4001C;stroke-width:4;stroke-miterlimit:10;}
	.st7{clip-path:url(#SVGID_00000096769580242183101690000017502479789812425614_);}
	
		.st8{clip-path:url(#SVGID_00000147937340226015747060000006499664581000763273_);fill:#F8F8E5;stroke:#E4001C;stroke-width:4;stroke-miterlimit:10;}
	.st9{clip-path:url(#SVGID_00000090979753759185467730000017990783921199297471_);}
	.st10{fill:#E7E7D8;}
	.st11{clip-path:url(#SVGID_00000116916210812405479660000000354524200643448461_);}
	.st12{fill:#F8F8E5;stroke:#E4001C;stroke-width:4;stroke-miterlimit:10;}
	.st13{fill:none;stroke:#E4001C;stroke-width:4;stroke-linecap:round;stroke-linejoin:round;stroke-miterlimit:10;}
	
		.st14{clip-path:url(#SVGID_00000012443781489009562060000014583373909159740085_);fill:#FFFFFF;stroke:#E4001C;stroke-width:4;stroke-linecap:round;stroke-linejoin:round;stroke-miterlimit:10;}
	.st15{clip-path:url(#SVGID_00000101071988680198262840000017283289268697269691_);fill:#E4001C;}
	
		.st16{clip-path:url(#SVGID_00000178915223802704573290000003063381857149672853_);fill:#FFFFFF;stroke:#E4001C;stroke-width:4;stroke-linecap:round;stroke-linejoin:round;stroke-miterlimit:10;}
	.st17{clip-path:url(#SVGID_00000087383427121653715010000000670904752949926032_);fill:#E4001C;}
	.st18{clip-path:url(#SVGID_00000165195003945014051920000004487953995153754034_);}
	
		.st19{clip-path:url(#SVGID_00000070822938972487557070000012094239292079982748_);fill:#F8F8E5;stroke:#E4001C;stroke-width:4;stroke-miterlimit:10;}
	.st20{clip-path:url(#SVGID_00000143595072243510876410000015162338791365815204_);}
	
		.st21{clip-path:url(#SVGID_00000057869481756207408730000011834892981324326823_);fill:#F8F8E5;stroke:#E4001C;stroke-width:4;stroke-miterlimit:10;}
	.st22{clip-path:url(#SVGID_00000155832995180392276740000000493172574176388229_);}
	.st23{clip-path:url(#SVGID_00000093876693113089406780000007778738018904957064_);}
	.st24{clip-path:url(#SVGID_00000173862148517526384130000014658907109951958150_);}
	.st25{clip-path:url(#SVGID_00000092456439089358700850000011903066760499928224_);}
</style>
<g id="우측사이드버튼_00000178900888839723486600000011079304992226036410_">
	<rect x="1600" y="243.2" class="st0" width="200" height="25.6"/>
	<rect x="1600" y="307.3" class="st0" width="200" height="25.6"/>
	<rect x="1600" y="179.1" class="st0" width="200" height="25.6"/>
</g>
<g>
	<circle class="st0" cx="940" cy="257.8" r="100"/>
	<path class="st1" d="M966.8,268.9l47.4-9c2.5-0.5,2.5-4,0-4.5l-47.4-9c-1.6-0.3-2.4-2.1-1.5-3.5l7.9-11.5c2.9-4.3-2.3-9.4-6.6-6.5
		l-11.7,7.8c-1.4,0.9-3.2,0.1-3.6-1.4l-9.1-46.5c-0.5-2.5-4.1-2.5-4.5,0l-9.1,46.5c-0.3,1.6-2.2,2.4-3.6,1.4l-11.7-7.8
		c-4.3-2.9-9.6,2.2-6.6,6.5l7.9,11.5c0.9,1.3,0.2,3.2-1.5,3.5l-47.4,9c-2.5,0.5-2.5,4,0,4.5l47.4,9c1.6,0.3,2.4,2.1,1.5,3.5
		l-7.9,11.5c-2.9,4.3,2.3,9.4,6.6,6.5l11.7-7.8c1.4-0.9,3.2-0.1,3.6,1.4l9.1,46.5c0.5,2.5,4.1,2.5,4.5,0l9.1-46.5
		c0.3-1.6,2.2-2.4,3.6-1.4l11.7,7.8c4.3,2.9,9.6-2.2,6.6-6.5l-7.9-11.5C964.4,271.1,965.2,269.3,966.8,268.9z"/>
</g>
<g>
	<circle class="st2" cx="180" cy="256" r="100"/>
	<path class="st1" d="M206.8,267.4l47.4-9.1c2.5-0.5,2.5-4.1,0-4.5l-47.4-9.1c-1.6-0.3-2.4-2.2-1.5-3.6l7.9-11.7
		c2.9-4.3-2.3-9.6-6.6-6.6l-11.7,7.9c-1.4,0.9-3.2,0.2-3.6-1.5l-9.1-47.4c-0.5-2.5-4.1-2.5-4.5,0l-9.1,47.4
		c-0.3,1.6-2.2,2.4-3.6,1.5l-11.7-7.9c-4.3-2.9-9.6,2.3-6.6,6.6l7.9,11.7c0.9,1.4,0.2,3.2-1.5,3.6l-47.4,9.1c-2.5,0.5-2.5,4.1,0,4.5
		l47.4,9.1c1.6,0.3,2.4,2.2,1.5,3.6l-7.9,11.7c-2.9,4.3,2.3,9.6,6.6,6.6l11.7-7.9c1.4-0.9,3.2-0.2,3.6,1.5l9.1,47.4
		c0.5,2.5,4.1,2.5,4.5,0l9.1-47.4c0.3-1.6,2.2-2.4,3.6-1.5l11.7,7.9c4.3,2.9,9.6-2.3,6.6-6.6l-7.9-11.7
		C204.4,269.6,205.2,267.7,206.8,267.4z"/>
</g>
<g id="우측사이드버튼">
	<rect x="1220" y="243.2" class="st3" width="200" height="25.6"/>
	<rect x="1220" y="307.3" class="st3" width="200" height="25.6"/>
	<rect x="1220" y="179.1" class="st3" width="200" height="25.6"/>
</g>
<g>
	<g>
		<g>
			<g>
				<path class="st1" d="M2405,352.4L2405,352.4c-0.1-0.2-0.1-0.3-0.2-0.5l-4.8,2c-8,3.3-11.7,12.5-8.4,20.5l0,0
					c3.3,8,12.5,11.7,20.5,8.4l30.5-12.8c7.8-3.3,11.6-12.2,8.6-20l-25.7,10.8C2417.5,364.2,2408.3,360.4,2405,352.4z"/>
				<path class="st4" d="M2405,352.4L2405,352.4c-0.1-0.2-0.1-0.3-0.2-0.5l-4.8,2c-8,3.3-11.7,12.5-8.4,20.5l0,0
					c3.3,8,12.5,11.7,20.5,8.4l30.5-12.8c7.8-3.3,11.6-12.2,8.6-20l-25.7,10.8C2417.5,364.2,2408.3,360.4,2405,352.4z"/>
			</g>
			<g>
				<path class="st0" d="M2451,349.6c-3.3-8-12.5-11.7-20.5-8.4l-25.7,10.8c0.1,0.2,0.1,0.3,0.2,0.5l0,0c3.3,8,12.5,11.7,20.5,8.4
					l25.7-10.8C2451.1,349.9,2451.1,349.7,2451,349.6L2451,349.6z"/>
				<path class="st5" d="M2451,349.6c-3.3-8-12.5-11.7-20.5-8.4l-25.7,10.8c0.1,0.2,0.1,0.3,0.2,0.5l0,0c3.3,8,12.5,11.7,20.5,8.4
					l25.7-10.8C2451.1,349.9,2451.1,349.7,2451,349.6L2451,349.6z"/>
			</g>
		</g>
		<g>
			<g>
				<path class="st1" d="M2515,352.4L2515,352.4c0.1-0.2,0.1-0.3,0.2-0.5l4.8,2c8,3.3,11.7,12.5,8.4,20.5l0,0
					c-3.3,8-12.5,11.7-20.5,8.4l-30.5-12.8c-7.8-3.3-11.6-12.2-8.6-20l25.7,10.8C2502.5,364.2,2511.7,360.4,2515,352.4z"/>
				<path class="st4" d="M2515,352.4L2515,352.4c0.1-0.2,0.1-0.3,0.2-0.5l4.8,2c8,3.3,11.7,12.5,8.4,20.5l0,0
					c-3.3,8-12.5,11.7-20.5,8.4l-30.5-12.8c-7.8-3.3-11.6-12.2-8.6-20l25.7,10.8C2502.5,364.2,2511.7,360.4,2515,352.4z"/>
			</g>
			<g>
				<path class="st0" d="M2469,349.6c3.3-8,12.5-11.7,20.5-8.4l25.7,10.8c-0.1,0.2-0.1,0.3-0.2,0.5l0,0c-3.3,8-12.5,11.7-20.5,8.4
					l-25.7-10.8C2468.9,349.9,2468.9,349.7,2469,349.6L2469,349.6z"/>
				<path class="st5" d="M2469,349.6c3.3-8,12.5-11.7,20.5-8.4l25.7,10.8c-0.1,0.2-0.1,0.3-0.2,0.5l0,0c-3.3,8-12.5,11.7-20.5,8.4
					l-25.7-10.8C2468.9,349.9,2468.9,349.7,2469,349.6L2469,349.6z"/>
			</g>
		</g>
		<g>
			<g>
				<g>
					<path class="st1" d="M2460,365.8L2460,365.8c-33.4,0-60.4-27-60.4-60.4v-117c0-33.4,27-60.4,60.4-60.4l0,0
						c33.4,0,60.4,27,60.4,60.4v117C2520.4,338.7,2493.4,365.8,2460,365.8z"/>
					<path class="st4" d="M2460,365.8L2460,365.8c-33.4,0-60.4-27-60.4-60.4v-117c0-33.4,27-60.4,60.4-60.4l0,0
						c33.4,0,60.4,27,60.4,60.4v117C2520.4,338.7,2493.4,365.8,2460,365.8z"/>
				</g>
				<g>
					<g>
						<path id="SVGID_00000057131831479993142920000013054279054937881016_" class="st1" d="M2479,259.3L2479,259.3
							c-10,0-18-8.1-18-18v-65.9c0-10,8.1-18,18-18l0,0c10,0,18,8.1,18,18v65.9C2497,251.3,2489,259.3,2479,259.3z"/>
					</g>
					<g>
						<defs>
							<path id="SVGID_1_" d="M2479,259.3L2479,259.3c-10,0-18-8.1-18-18v-65.9c0-10,8.1-18,18-18l0,0c10,0,18,8.1,18,18v65.9
								C2497,251.3,2489,259.3,2479,259.3z"/>
						</defs>
						<clipPath id="SVGID_00000039833415642675172290000014934955235889081008_">
							<use xlink:href="#SVGID_1_"  style="overflow:visible;"/>
						</clipPath>
						
							<path style="clip-path:url(#SVGID_00000039833415642675172290000014934955235889081008_);fill:#F8F8E5;stroke:#E4001C;stroke-width:4;stroke-miterlimit:10;" d="
							M2479,259.3L2479,259.3c-10,0-18-8.1-18-18v-65.9c0-10,8.1-18,18-18l0,0c10,0,18,8.1,18,18v65.9
							C2497,251.3,2489,259.3,2479,259.3z"/>
					</g>
					<g>
						<defs>
							<path id="SVGID_00000020368671187676579320000014262670521785005734_" d="M2479,259.3L2479,259.3c-10,0-18-8.1-18-18v-65.9
								c0-10,8.1-18,18-18l0,0c10,0,18,8.1,18,18v65.9C2497,251.3,2489,259.3,2479,259.3z"/>
						</defs>
						<clipPath id="SVGID_00000152951264892161319730000004242714275372529335_">
							<use xlink:href="#SVGID_00000020368671187676579320000014262670521785005734_"  style="overflow:visible;"/>
						</clipPath>
						<g style="clip-path:url(#SVGID_00000152951264892161319730000004242714275372529335_);">
							<path class="st0" d="M2470.7,257.7L2470.7,257.7c-7.5,0-13.6-6.1-13.6-13.6v-49.6c0-7.5,6.1-13.6,13.6-13.6l0,0
								c7.5,0,13.6,6.1,13.6,13.6v49.6C2484.2,251.6,2478.2,257.7,2470.7,257.7z"/>
						</g>
					</g>
					<g>
						<path id="SVGID_00000126283100056444488080000012885731578059227295_" class="st4" d="M2479,259.3L2479,259.3
							c-10,0-18-8.1-18-18v-65.9c0-10,8.1-18,18-18l0,0c10,0,18,8.1,18,18v65.9C2497,251.3,2489,259.3,2479,259.3z"/>
					</g>
				</g>
				<g>
					<g>
						<path id="SVGID_00000001634776274629611300000008787068765787836040_" class="st1" d="M2437,259.3L2437,259.3
							c-10,0-18-8.1-18-18v-65.9c0-10,8.1-18,18-18l0,0c10,0,18,8.1,18,18v65.9C2455,251.3,2447,259.3,2437,259.3z"/>
					</g>
					<g>
						<defs>
							<path id="SVGID_00000093154403120630988920000000953661731517272705_" d="M2437,259.3L2437,259.3c-10,0-18-8.1-18-18v-65.9
								c0-10,8.1-18,18-18l0,0c10,0,18,8.1,18,18v65.9C2455,251.3,2447,259.3,2437,259.3z"/>
						</defs>
						<clipPath id="SVGID_00000163791047138473612250000017127873563111137466_">
							<use xlink:href="#SVGID_00000093154403120630988920000000953661731517272705_"  style="overflow:visible;"/>
						</clipPath>
						
							<path style="clip-path:url(#SVGID_00000163791047138473612250000017127873563111137466_);fill:#F8F8E5;stroke:#E4001C;stroke-width:4;stroke-miterlimit:10;" d="
							M2437,259.3L2437,259.3c-10,0-18-8.1-18-18v-65.9c0-10,8.1-18,18-18l0,0c10,0,18,8.1,18,18v65.9
							C2455,251.3,2447,259.3,2437,259.3z"/>
					</g>
					<g>
						<defs>
							<path id="SVGID_00000080891460411375063020000007684124758802521274_" d="M2437,259.3L2437,259.3c-10,0-18-8.1-18-18v-65.9
								c0-10,8.1-18,18-18l0,0c10,0,18,8.1,18,18v65.9C2455,251.3,2447,259.3,2437,259.3z"/>
						</defs>
						<clipPath id="SVGID_00000150066286874609774760000005181035790169153214_">
							<use xlink:href="#SVGID_00000080891460411375063020000007684124758802521274_"  style="overflow:visible;"/>
						</clipPath>
						<g style="clip-path:url(#SVGID_00000150066286874609774760000005181035790169153214_);">
							<path class="st0" d="M2428.7,257.7L2428.7,257.7c-7.5,0-13.6-6.1-13.6-13.6v-49.6c0-7.5,6.1-13.6,13.6-13.6l0,0
								c7.5,0,13.6,6.1,13.6,13.6v49.6C2442.2,251.6,2436.2,257.7,2428.7,257.7z"/>
						</g>
					</g>
					<g>
						<path id="SVGID_00000036934616546424566260000000137016817221280665_" class="st4" d="M2437,259.3L2437,259.3
							c-10,0-18-8.1-18-18v-65.9c0-10,8.1-18,18-18l0,0c10,0,18,8.1,18,18v65.9C2455,251.3,2447,259.3,2437,259.3z"/>
					</g>
				</g>
				<g>
					<g>
						<path class="st10" d="M2460,127.9L2460,127.9c-1.5,0-3,0.1-4.5,0.2c31.3,2.3,55.9,28.4,55.9,60.2v117
							c0,31.8-24.6,57.9-55.9,60.2c1.5,0.1,3,0.2,4.5,0.2l0,0c33.4,0,60.4-27,60.4-60.4v-117C2520.4,155,2493.4,127.9,2460,127.9z"
							/>
					</g>
				</g>
				<g>
					<g>
						<g>
							<path class="st4" d="M2460,274.6L2460,274.6c-33.4,0-60.4-13.5-60.4-30.2v60.9c0,33.4,27,60.4,60.4,60.4l0,0
								c33.4,0,60.4-27,60.4-60.4v-60.9C2520.4,261.1,2493.4,274.6,2460,274.6z"/>
						</g>
					</g>
				</g>
			</g>
			<g>
				<path class="st4" d="M2460,365.8L2460,365.8c-33.4,0-60.4-27-60.4-60.4v-117c0-33.4,27-60.4,60.4-60.4l0,0
					c33.4,0,60.4,27,60.4,60.4v117C2520.4,338.7,2493.4,365.8,2460,365.8z"/>
			</g>
			<g>
				<g>
					<defs>
						<path id="SVGID_00000041991248099815168670000010871724892641529253_" d="M2460,274.6L2460,274.6c-33.4,0-60.4-13.5-60.4-30.2
							v60.9c0,33.4,27,60.4,60.4,60.4l0,0c33.4,0,60.4-27,60.4-60.4v-60.9C2520.4,261.1,2493.4,274.6,2460,274.6z"/>
					</defs>
					<clipPath id="SVGID_00000181801734553150253810000018176539357180020133_">
						<use xlink:href="#SVGID_00000041991248099815168670000010871724892641529253_"  style="overflow:visible;"/>
					</clipPath>
					<g style="clip-path:url(#SVGID_00000181801734553150253810000018176539357180020133_);">
						<g>
							<circle class="st0" cx="2375.4" cy="287.6" r="10"/>
							<circle class="st0" cx="2375.4" cy="252.9" r="10"/>
							<circle class="st0" cx="2375.4" cy="357.2" r="10"/>
							<circle class="st0" cx="2375.4" cy="322.4" r="10"/>
						</g>
						<g>
							<circle class="st0" cx="2409.5" cy="287.6" r="10"/>
							<circle class="st0" cx="2409.5" cy="252.9" r="10"/>
							<circle class="st0" cx="2409.5" cy="357.2" r="10"/>
							<circle class="st0" cx="2409.5" cy="322.4" r="10"/>
						</g>
						<g>
							<circle class="st0" cx="2443.7" cy="287.6" r="10"/>
							<circle class="st0" cx="2443.7" cy="252.9" r="10"/>
							<circle class="st0" cx="2443.7" cy="357.2" r="10"/>
							<circle class="st0" cx="2443.7" cy="322.4" r="10"/>
						</g>
						<g>
							<circle class="st0" cx="2477.8" cy="287.6" r="10"/>
							<circle class="st0" cx="2477.8" cy="252.9" r="10"/>
							<circle class="st0" cx="2477.8" cy="357.2" r="10"/>
							<circle class="st0" cx="2477.8" cy="322.4" r="10"/>
						</g>
						<g>
							<circle class="st0" cx="2511.9" cy="287.6" r="10"/>
							<circle class="st0" cx="2511.9" cy="252.9" r="10"/>
							<circle class="st0" cx="2511.9" cy="357.2" r="10"/>
							<circle class="st0" cx="2511.9" cy="322.4" r="10"/>
						</g>
						<g>
							<circle class="st0" cx="2546.1" cy="287.6" r="10"/>
							<circle class="st0" cx="2546.1" cy="252.9" r="10"/>
							<circle class="st0" cx="2546.1" cy="357.2" r="10"/>
							<circle class="st0" cx="2546.1" cy="322.4" r="10"/>
						</g>
					</g>
				</g>
			</g>
		</g>
	</g>
</g>
<g>
	<g>
		<g>
			<g>
				<path class="st12" d="M2080,374.9L2080,374.9c-33.4,0-60.4-27-60.4-60.4v-117c0-33.4,27-60.4,60.4-60.4l0,0
					c33.4,0,60.4,27,60.4,60.4v117C2140.4,347.9,2113.4,374.9,2080,374.9z"/>
				<g>
					<path class="st10" d="M2080,137.1L2080,137.1c-1.5,0-3,0.1-4.5,0.2c31.3,2.3,55.9,28.4,55.9,60.2v117
						c0,31.8-24.6,57.9-55.9,60.2c1.5,0.1,3,0.2,4.5,0.2l0,0c33.4,0,60.4-27,60.4-60.4v-117C2140.4,164.1,2113.4,137.1,2080,137.1z"
						/>
				</g>
				<g>
					<path class="st13" d="M2080,283.8L2080,283.8c-33.4,0-60.4-13.5-60.4-30.2v60.9c0,33.4,27,60.4,60.4,60.4l0,0
						c33.4,0,60.4-27,60.4-60.4v-60.9C2140.4,270.3,2113.4,283.8,2080,283.8z"/>
				</g>
				<g>
					<g>
						<defs>
							<path id="SVGID_00000093171982460531556110000018392359433469262475_" d="M2098,268.5L2098,268.5c-10,0-18-8.1-18-18v-65.9
								c0-10,8.1-18,18-18l0,0c10,0,18,8.1,18,18v65.9C2116.1,260.4,2108,268.5,2098,268.5z"/>
						</defs>
						<clipPath id="SVGID_00000074436733275164355440000017745054770778926011_">
							<use xlink:href="#SVGID_00000093171982460531556110000018392359433469262475_"  style="overflow:visible;"/>
						</clipPath>
						
							<path style="clip-path:url(#SVGID_00000074436733275164355440000017745054770778926011_);fill:#FFFFFF;stroke:#E4001C;stroke-width:4;stroke-linecap:round;stroke-linejoin:round;stroke-miterlimit:10;" d="
							M2098,268.5L2098,268.5c-10,0-18-8.1-18-18v-65.9c0-10,8.1-18,18-18l0,0c10,0,18,8.1,18,18v65.9
							C2116.1,260.4,2108,268.5,2098,268.5z"/>
					</g>
					<g>
						<defs>
							<path id="SVGID_00000166656987233085413420000006713199930266324156_" d="M2098,268.5L2098,268.5c-10,0-18-8.1-18-18v-65.9
								c0-10,8.1-18,18-18l0,0c10,0,18,8.1,18,18v65.9C2116.1,260.4,2108,268.5,2098,268.5z"/>
						</defs>
						<clipPath id="SVGID_00000111897613679010275340000010664210786861681029_">
							<use xlink:href="#SVGID_00000166656987233085413420000006713199930266324156_"  style="overflow:visible;"/>
						</clipPath>
						<path style="clip-path:url(#SVGID_00000111897613679010275340000010664210786861681029_);fill:#E4001C;" d="M2103.7,239.2
							L2103.7,239.2c-7.5,0-13.6-6.1-13.6-13.6V176c0-7.5,6.1-13.6,13.6-13.6l0,0c7.5,0,13.6,6.1,13.6,13.6v49.6
							C2117.3,233.2,2111.2,239.2,2103.7,239.2z"/>
					</g>
					<g>
						<path id="SVGID_00000030458817144694396200000017822544509678491545_" class="st13" d="M2098,268.5L2098,268.5
							c-10,0-18-8.1-18-18v-65.9c0-10,8.1-18,18-18l0,0c10,0,18,8.1,18,18v65.9C2116.1,260.4,2108,268.5,2098,268.5z"/>
					</g>
				</g>
				<g>
					<g>
						<defs>
							<path id="SVGID_00000029748929162001972740000006093241573925535150_" d="M2057,268.5L2057,268.5c-10,0-18-8.1-18-18v-65.9
								c0-10,8.1-18,18-18l0,0c10,0,18,8.1,18,18v65.9C2075,260.4,2067,268.5,2057,268.5z"/>
						</defs>
						<clipPath id="SVGID_00000134969033213697618820000002195544672795469704_">
							<use xlink:href="#SVGID_00000029748929162001972740000006093241573925535150_"  style="overflow:visible;"/>
						</clipPath>
						
							<path style="clip-path:url(#SVGID_00000134969033213697618820000002195544672795469704_);fill:#FFFFFF;stroke:#E4001C;stroke-width:4;stroke-linecap:round;stroke-linejoin:round;stroke-miterlimit:10;" d="
							M2057,268.5L2057,268.5c-10,0-18-8.1-18-18v-65.9c0-10,8.1-18,18-18l0,0c10,0,18,8.1,18,18v65.9
							C2075,260.4,2067,268.5,2057,268.5z"/>
					</g>
					<g>
						<defs>
							<path id="SVGID_00000047060226641249444630000002915543811274114449_" d="M2057,268.5L2057,268.5c-10,0-18-8.1-18-18v-65.9
								c0-10,8.1-18,18-18l0,0c10,0,18,8.1,18,18v65.9C2075,260.4,2067,268.5,2057,268.5z"/>
						</defs>
						<clipPath id="SVGID_00000127742058055834997430000017873045216966644131_">
							<use xlink:href="#SVGID_00000047060226641249444630000002915543811274114449_"  style="overflow:visible;"/>
						</clipPath>
						<path style="clip-path:url(#SVGID_00000127742058055834997430000017873045216966644131_);fill:#E4001C;" d="M2062.6,239.2
							L2062.6,239.2c-7.5,0-13.6-6.1-13.6-13.6V176c0-7.5,6.1-13.6,13.6-13.6l0,0c7.5,0,13.6,6.1,13.6,13.6v49.6
							C2076.2,233.2,2070.1,239.2,2062.6,239.2z"/>
					</g>
					<g>
						<path id="SVGID_00000034050059376852662260000001701035849453761213_" class="st13" d="M2057,268.5L2057,268.5
							c-10,0-18-8.1-18-18v-65.9c0-10,8.1-18,18-18l0,0c10,0,18,8.1,18,18v65.9C2075,260.4,2067,268.5,2057,268.5z"/>
					</g>
				</g>
			</g>
			<g>
				<g>
					<path class="st0" d="M2080,373.4c-13.6,0-27.1-4.8-37.6-13.5c-10.4-8.7-17.7-20.8-20.3-34.1c-1.1-5.5-1.1-11-1.1-16.5
						c0-6.8,0-13.6,0-20.5c0-9.6,0-19.3,0-28.9c0-10,0-19.9,0-29.9c0-7.8,0-15.5,0-23.3c0-3.3,0-6.6,0-9.9
						c0.2-13.7,5.2-27.2,14.1-37.6c8.9-10.3,21.1-17.3,34.5-19.7c13.6-2.4,27.9,0.1,39.8,7c11.7,6.8,20.9,17.6,25.6,30.2
						c2.5,6.5,3.7,13.5,3.8,20.5c0,0.9,0,1.9,0,2.8c0,5.8,0,11.5,0,17.3c0,9.2,0,18.4,0,27.6c0,10.1,0,20.2,0,30.3
						c0,8.5,0,17,0,25.6c0,4.4,0,8.8,0,13.3c0,11-2.8,21.7-8.5,31.1c-7,11.5-17.9,20.4-30.5,25
						C2093.5,372.3,2086.8,373.4,2080,373.4c-1.9,0-1.9,3,0,3c14.2,0,28-4.9,39-13.9c10.8-8.7,18.4-21.1,21.4-34.6
						c1.3-6,1.5-12.1,1.5-18.2c0-6.9,0-13.7,0-20.6c0-9.8,0-19.7,0-29.5c0-10.1,0-20.2,0-30.3c0-7.8,0-15.6,0-23.4
						c0-4,0.1-8-0.1-11.9c-0.8-14.1-6.5-27.6-15.9-38c-9.3-10.3-22.1-17.4-35.9-19.6c-14-2.3-28.5,0.3-40.8,7.4
						c-12,6.9-21.4,17.8-26.7,30.6c-3.3,8.1-4.5,16.6-4.5,25.3c0,5.7,0,11.4,0,17.2c0,9.4,0,18.7,0,28.1c0,10.3,0,20.6,0,30.9
						c0,8.6,0,17.1,0,25.7c0,4.3,0,8.5,0,12.8c0,12,3.4,23.8,9.9,33.9c7.5,11.6,18.9,20.5,32,25c6.4,2.2,13.2,3.3,20,3.3
						C2081.9,376.4,2081.9,373.4,2080,373.4z"/>
				</g>
			</g>
		</g>
		<g>
			<g>
				<defs>
					<path id="SVGID_00000176736646101516258110000017495790708259090359_" d="M2080,283.8L2080,283.8c-33.4,0-60.4-13.5-60.4-30.2
						v60.9c0,33.4,27,60.4,60.4,60.4l0,0c33.4,0,60.4-27,60.4-60.4v-60.9C2140.4,270.3,2113.4,283.8,2080,283.8z"/>
				</defs>
				<clipPath id="SVGID_00000039128004521815890910000008092124559381577914_">
					<use xlink:href="#SVGID_00000176736646101516258110000017495790708259090359_"  style="overflow:visible;"/>
				</clipPath>
				<g style="clip-path:url(#SVGID_00000039128004521815890910000008092124559381577914_);">
					<g>
						<polygon class="st0" points="2022.6,382.9 2033.9,380.7 2022.6,378.5 2026.9,372.2 2020.5,376.5 2018.3,365.1 2016.2,376.5 
							2009.8,372.2 2014.1,378.5 2002.8,380.7 2014.1,382.9 2009.8,389.3 2016.2,385 2018.3,396.3 2020.5,385 2026.9,389.3 						
							"/>
						<polygon class="st0" points="2022.6,337.2 2033.9,335 2022.6,332.8 2026.9,326.4 2020.5,330.7 2018.3,319.4 2016.2,330.7 
							2009.8,326.4 2014.1,332.8 2002.8,335 2014.1,337.2 2009.8,343.5 2016.2,339.2 2018.3,350.6 2020.5,339.2 2026.9,343.5 						
							"/>
						<polygon class="st0" points="2022.6,291.4 2033.9,289.2 2022.6,287 2026.9,280.7 2020.5,285 2018.3,273.6 2016.2,285 
							2009.8,280.7 2014.1,287 2002.8,289.2 2014.1,291.4 2009.8,297.8 2016.2,293.5 2018.3,304.8 2020.5,293.5 2026.9,297.8 						
							"/>
					</g>
					<g>
						<polygon class="st0" points="2052.5,360 2063.9,357.9 2052.5,355.7 2056.8,349.3 2050.5,353.6 2048.3,342.3 2046.1,353.6 
							2039.8,349.3 2044.1,355.7 2032.7,357.9 2044.1,360 2039.8,366.4 2046.1,362.1 2048.3,373.4 2050.5,362.1 2056.8,366.4 						
							"/>
						<polygon class="st0" points="2052.5,314.3 2063.9,312.1 2052.5,309.9 2056.8,303.5 2050.5,307.9 2048.3,296.5 2046.1,307.9 
							2039.8,303.5 2044.1,309.9 2032.7,312.1 2044.1,314.3 2039.8,320.6 2046.1,316.3 2048.3,327.7 2050.5,316.3 2056.8,320.6 
													"/>
					</g>
					<g>
						<polygon class="st0" points="2082.5,382.9 2093.8,380.7 2082.5,378.5 2086.8,372.2 2080.4,376.5 2078.3,365.1 2076.1,376.5 
							2069.7,372.2 2074,378.5 2062.7,380.7 2074,382.9 2069.7,389.3 2076.1,385 2078.3,396.3 2080.4,385 2086.8,389.3 						"/>
						<polygon class="st0" points="2082.5,337.2 2093.8,335 2082.5,332.8 2086.8,326.4 2080.4,330.7 2078.3,319.4 2076.1,330.7 
							2069.7,326.4 2074,332.8 2062.7,335 2074,337.2 2069.7,343.5 2076.1,339.2 2078.3,350.6 2080.4,339.2 2086.8,343.5 						"/>
						<polygon class="st0" points="2082.5,291.4 2093.8,289.2 2082.5,287 2086.8,280.7 2080.4,285 2078.3,273.6 2076.1,285 
							2069.7,280.7 2074,287 2062.7,289.2 2074,291.4 2069.7,297.8 2076.1,293.5 2078.3,304.8 2080.4,293.5 2086.8,297.8 						"/>
					</g>
					<g>
						<polygon class="st0" points="2112.5,360 2123.8,357.9 2112.5,355.7 2116.8,349.3 2110.4,353.6 2108.2,342.3 2106,353.6 
							2099.7,349.3 2104,355.7 2092.6,357.9 2104,360 2099.7,366.4 2106,362.1 2108.2,373.4 2110.4,362.1 2116.8,366.4 						"/>
						<polygon class="st0" points="2112.5,314.3 2123.8,312.1 2112.5,309.9 2116.8,303.5 2110.4,307.9 2108.2,296.5 2106,307.9 
							2099.7,303.5 2104,309.9 2092.6,312.1 2104,314.3 2099.7,320.6 2106,316.3 2108.2,327.7 2110.4,316.3 2116.8,320.6 						"/>
					</g>
					<g>
						<polygon class="st0" points="2142.4,382.9 2153.8,380.7 2142.4,378.5 2146.7,372.2 2140.4,376.5 2138.2,365.1 2136,376.5 
							2129.6,372.2 2134,378.5 2122.6,380.7 2134,382.9 2129.6,389.3 2136,385 2138.2,396.3 2140.4,385 2146.7,389.3 						"/>
						<polygon class="st0" points="2142.4,337.2 2153.8,335 2142.4,332.8 2146.7,326.4 2140.4,330.7 2138.2,319.4 2136,330.7 
							2129.6,326.4 2134,332.8 2122.6,335 2134,337.2 2129.6,343.5 2136,339.2 2138.2,350.6 2140.4,339.2 2146.7,343.5 						"/>
						<polygon class="st0" points="2142.4,291.4 2153.8,289.2 2142.4,287 2146.7,280.7 2140.4,285 2138.2,273.6 2136,285 
							2129.6,280.7 2134,287 2122.6,289.2 2134,291.4 2129.6,297.8 2136,293.5 2138.2,304.8 2140.4,293.5 2146.7,297.8 						"/>
					</g>
				</g>
			</g>
		</g>
	</g>
</g>
<g>
	<g>
		<g>
			<g>
				<path class="st1" d="M2840,368.4L2840,368.4c-33.4,0-60.4-27-60.4-60.4V191c0-33.4,27-60.4,60.4-60.4l0,0
					c33.4,0,60.4,27,60.4,60.4v117C2900.4,341.3,2873.4,368.4,2840,368.4z"/>
				<path class="st4" d="M2840,368.4L2840,368.4c-33.4,0-60.4-27-60.4-60.4V191c0-33.4,27-60.4,60.4-60.4l0,0
					c33.4,0,60.4,27,60.4,60.4v117C2900.4,341.3,2873.4,368.4,2840,368.4z"/>
			</g>
			<g>
				<g>
					<path id="SVGID_00000016756393635386504620000018323859205417008539_" class="st1" d="M2817,261.9L2817,261.9
						c-10,0-18-8.1-18-18V178c0-10,8.1-18,18-18l0,0c10,0,18,8.1,18,18v65.9C2835,253.8,2827,261.9,2817,261.9z"/>
				</g>
				<g>
					<defs>
						<path id="SVGID_00000106148263194540338840000017966757525310294448_" d="M2817,261.9L2817,261.9c-10,0-18-8.1-18-18V178
							c0-10,8.1-18,18-18l0,0c10,0,18,8.1,18,18v65.9C2835,253.8,2827,261.9,2817,261.9z"/>
					</defs>
					<clipPath id="SVGID_00000126316642500952132150000011594267260579535244_">
						<use xlink:href="#SVGID_00000106148263194540338840000017966757525310294448_"  style="overflow:visible;"/>
					</clipPath>
					
						<path style="clip-path:url(#SVGID_00000126316642500952132150000011594267260579535244_);fill:#F8F8E5;stroke:#E4001C;stroke-width:4;stroke-miterlimit:10;" d="
						M2817,261.9L2817,261.9c-10,0-18-8.1-18-18V178c0-10,8.1-18,18-18l0,0c10,0,18,8.1,18,18v65.9
						C2835,253.8,2827,261.9,2817,261.9z"/>
				</g>
				<g>
					<defs>
						<path id="SVGID_00000127743113895348783670000007537107653803569283_" d="M2817,261.9L2817,261.9c-10,0-18-8.1-18-18V178
							c0-10,8.1-18,18-18l0,0c10,0,18,8.1,18,18v65.9C2835,253.8,2827,261.9,2817,261.9z"/>
					</defs>
					<clipPath id="SVGID_00000065050133293859207420000018201697691913193404_">
						<use xlink:href="#SVGID_00000127743113895348783670000007537107653803569283_"  style="overflow:visible;"/>
					</clipPath>
					<g style="clip-path:url(#SVGID_00000065050133293859207420000018201697691913193404_);">
						<path class="st0" d="M2824.2,249.3L2824.2,249.3c-7.5,0-13.6-6.1-13.6-13.6v-49.6c0-7.5,6.1-13.6,13.6-13.6l0,0
							c7.5,0,13.6,6.1,13.6,13.6v49.6C2837.7,243.2,2831.7,249.3,2824.2,249.3z"/>
					</g>
				</g>
				<g>
					<path id="SVGID_00000181052417594432447080000004181468900537909152_" class="st4" d="M2817,261.9L2817,261.9
						c-10,0-18-8.1-18-18V178c0-10,8.1-18,18-18l0,0c10,0,18,8.1,18,18v65.9C2835,253.8,2827,261.9,2817,261.9z"/>
				</g>
			</g>
			<g>
				<g>
					<path id="SVGID_00000007427545832288620740000013312073827448041894_" class="st1" d="M2858,261.9L2858,261.9
						c-10,0-18-8.1-18-18V178c0-10,8.1-18,18-18l0,0c10,0,18,8.1,18,18v65.9C2876.1,253.8,2868,261.9,2858,261.9z"/>
				</g>
				<g>
					<defs>
						<path id="SVGID_00000135652611982987518780000007659466699998697897_" d="M2858,261.9L2858,261.9c-10,0-18-8.1-18-18V178
							c0-10,8.1-18,18-18l0,0c10,0,18,8.1,18,18v65.9C2876.1,253.8,2868,261.9,2858,261.9z"/>
					</defs>
					<clipPath id="SVGID_00000089541745190216799860000003180089529842932100_">
						<use xlink:href="#SVGID_00000135652611982987518780000007659466699998697897_"  style="overflow:visible;"/>
					</clipPath>
					
						<path style="clip-path:url(#SVGID_00000089541745190216799860000003180089529842932100_);fill:#F8F8E5;stroke:#E4001C;stroke-width:4;stroke-miterlimit:10;" d="
						M2858,261.9L2858,261.9c-10,0-18-8.1-18-18V178c0-10,8.1-18,18-18l0,0c10,0,18,8.1,18,18v65.9
						C2876.1,253.8,2868,261.9,2858,261.9z"/>
				</g>
				<g>
					<defs>
						<path id="SVGID_00000024711471880393541080000018318902767425278085_" d="M2858,261.9L2858,261.9c-10,0-18-8.1-18-18V178
							c0-10,8.1-18,18-18l0,0c10,0,18,8.1,18,18v65.9C2876.1,253.8,2868,261.9,2858,261.9z"/>
					</defs>
					<clipPath id="SVGID_00000091699418623901954580000016110074653672969614_">
						<use xlink:href="#SVGID_00000024711471880393541080000018318902767425278085_"  style="overflow:visible;"/>
					</clipPath>
					<g style="clip-path:url(#SVGID_00000091699418623901954580000016110074653672969614_);">
						<path class="st0" d="M2865.2,249.3L2865.2,249.3c-7.5,0-13.6-6.1-13.6-13.6v-49.6c0-7.5,6.1-13.6,13.6-13.6l0,0
							c7.5,0,13.6,6.1,13.6,13.6v49.6C2878.8,243.2,2872.7,249.3,2865.2,249.3z"/>
					</g>
				</g>
				<g>
					<path id="SVGID_00000018201402745081082520000015009965305604564882_" class="st4" d="M2858,261.9L2858,261.9
						c-10,0-18-8.1-18-18V178c0-10,8.1-18,18-18l0,0c10,0,18,8.1,18,18v65.9C2876.1,253.8,2868,261.9,2858,261.9z"/>
				</g>
			</g>
			<g>
				<g>
					<path class="st10" d="M2840,130.5L2840,130.5c-1.5,0-3,0.1-4.5,0.2c31.3,2.3,55.9,28.4,55.9,60.2v117
						c0,31.8-24.6,57.9-55.9,60.2c1.5,0.1,3,0.2,4.5,0.2l0,0c33.4,0,60.4-27,60.4-60.4v-117C2900.4,157.5,2873.4,130.5,2840,130.5z"
						/>
				</g>
			</g>
			<g>
				<g>
					<path class="st1" d="M2840,277.2L2840,277.2c-33.4,0-60.4-13.5-60.4-30.2v60.9c0,33.4,27,60.4,60.4,60.4l0,0
						c33.4,0,60.4-27,60.4-60.4V247C2900.4,263.7,2873.4,277.2,2840,277.2z"/>
					<path class="st4" d="M2840,277.2L2840,277.2c-33.4,0-60.4-13.5-60.4-30.2v60.9c0,33.4,27,60.4,60.4,60.4l0,0
						c33.4,0,60.4-27,60.4-60.4V247C2900.4,263.7,2873.4,277.2,2840,277.2z"/>
				</g>
			</g>
			<g>
				<path class="st4" d="M2840,368.4L2840,368.4c-33.4,0-60.4-27-60.4-60.4V191c0-33.4,27-60.4,60.4-60.4l0,0
					c33.4,0,60.4,27,60.4,60.4v117C2900.4,341.3,2873.4,368.4,2840,368.4z"/>
			</g>
			<g>
				<g>
					<defs>
						<path id="SVGID_00000052789621460862407590000000920765149792278457_" d="M2840,277.2L2840,277.2c-33.4,0-60.4-13.5-60.4-30.2
							v60.9c0,33.4,27,60.4,60.4,60.4l0,0c33.4,0,60.4-27,60.4-60.4V247C2900.4,263.7,2873.4,277.2,2840,277.2z"/>
					</defs>
					<clipPath id="SVGID_00000159469916758301819130000014584793966850651530_">
						<use xlink:href="#SVGID_00000052789621460862407590000000920765149792278457_"  style="overflow:visible;"/>
					</clipPath>
					<g style="clip-path:url(#SVGID_00000159469916758301819130000014584793966850651530_);">
						<polygon class="st0" points="2785.1,291.5 2790.5,291.5 2784.4,285 2788,285 2782.9,279.5 2777.8,274.1 2772.7,279.5 
							2767.6,285 2771.2,285 2765.1,291.5 2770.5,291.5 2764.4,298.1 2777.8,298.1 2791.3,298.1 						"/>
						<polygon class="st0" points="2909.5,291.5 2914.9,291.5 2908.8,285 2912.4,285 2907.3,279.5 2902.2,274.1 2897.1,279.5 
							2892,285 2895.6,285 2889.5,291.5 2894.9,291.5 2888.7,298.1 2902.2,298.1 2915.6,298.1 						"/>
						<polygon class="st0" points="2826.6,291.5 2832,291.5 2825.9,285 2829.5,285 2824.4,279.5 2819.3,274.1 2814.2,279.5 
							2809.1,285 2812.7,285 2806.6,291.5 2812,291.5 2805.8,298.1 2819.3,298.1 2832.7,298.1 						"/>
						<polygon class="st0" points="2868,291.5 2873.4,291.5 2867.3,285 2870.9,285 2865.8,279.5 2860.7,274.1 2855.6,279.5 
							2850.5,285 2854.1,285 2848,291.5 2853.4,291.5 2847.3,298.1 2860.7,298.1 2874.2,298.1 						"/>
					</g>
				</g>
				<g>
					<defs>
						<path id="SVGID_00000169557658704343393560000011126523419603965326_" d="M2840,277.2L2840,277.2c-33.4,0-60.4-13.5-60.4-30.2
							v60.9c0,33.4,27,60.4,60.4,60.4l0,0c33.4,0,60.4-27,60.4-60.4V247C2900.4,263.7,2873.4,277.2,2840,277.2z"/>
					</defs>
					<clipPath id="SVGID_00000115491053498395707720000005344190183874419098_">
						<use xlink:href="#SVGID_00000169557658704343393560000011126523419603965326_"  style="overflow:visible;"/>
					</clipPath>
					<g style="clip-path:url(#SVGID_00000115491053498395707720000005344190183874419098_);">
						<polygon class="st0" points="2764.4,326.3 2769.8,326.3 2763.7,319.8 2767.3,319.8 2762.2,314.4 2757.1,308.9 2752,314.4 
							2746.9,319.8 2750.5,319.8 2744.4,326.3 2749.8,326.3 2743.6,332.9 2757.1,332.9 2770.6,332.9 						"/>
						<polygon class="st0" points="2888.7,326.3 2894.1,326.3 2888,319.8 2891.7,319.8 2886.6,314.4 2881.4,308.9 2876.3,314.4 
							2871.2,319.8 2874.9,319.8 2868.8,326.3 2874.2,326.3 2868,332.9 2881.4,332.9 2894.9,332.9 						"/>
						<polygon class="st0" points="2805.8,326.3 2811.2,326.3 2805.1,319.8 2808.8,319.8 2803.7,314.4 2798.6,308.9 2793.4,314.4 
							2788.3,319.8 2792,319.8 2785.9,326.3 2791.3,326.3 2785.1,332.9 2798.6,332.9 2812,332.9 						"/>
						<polygon class="st0" points="2847.3,326.3 2852.7,326.3 2846.6,319.8 2850.2,319.8 2845.1,314.4 2840,308.9 2834.9,314.4 
							2829.8,319.8 2833.4,319.8 2827.3,326.3 2832.7,326.3 2826.5,332.9 2840,332.9 2853.5,332.9 						"/>
						<polygon class="st0" points="2930.2,326.3 2935.6,326.3 2929.5,319.8 2933.1,319.8 2928,314.4 2922.9,308.9 2917.8,314.4 
							2912.7,319.8 2916.3,319.8 2910.2,326.3 2915.6,326.3 2909.4,332.9 2922.9,332.9 2936.4,332.9 						"/>
					</g>
				</g>
				<g>
					<defs>
						<path id="SVGID_00000101793607268220841330000007027912553167800981_" d="M2840,277.2L2840,277.2c-33.4,0-60.4-13.5-60.4-30.2
							v60.9c0,33.4,27,60.4,60.4,60.4l0,0c33.4,0,60.4-27,60.4-60.4V247C2900.4,263.7,2873.4,277.2,2840,277.2z"/>
					</defs>
					<clipPath id="SVGID_00000046301436520096282340000012925849456540869808_">
						<use xlink:href="#SVGID_00000101793607268220841330000007027912553167800981_"  style="overflow:visible;"/>
					</clipPath>
					<g style="clip-path:url(#SVGID_00000046301436520096282340000012925849456540869808_);">
						<polygon class="st0" points="2785.1,361.2 2790.5,361.2 2784.4,354.7 2788,354.7 2782.9,349.2 2777.8,343.7 2772.7,349.2 
							2767.6,354.7 2771.2,354.7 2765.1,361.2 2770.5,361.2 2764.4,367.8 2777.8,367.8 2791.3,367.8 						"/>
						<polygon class="st0" points="2909.5,361.2 2914.9,361.2 2908.8,354.7 2912.4,354.7 2907.3,349.2 2902.2,343.7 2897.1,349.2 
							2892,354.7 2895.6,354.7 2889.5,361.2 2894.9,361.2 2888.7,367.8 2902.2,367.8 2915.6,367.8 						"/>
						<polygon class="st0" points="2826.6,361.2 2832,361.2 2825.9,354.7 2829.5,354.7 2824.4,349.2 2819.3,343.7 2814.2,349.2 
							2809.1,354.7 2812.7,354.7 2806.6,361.2 2812,361.2 2805.8,367.8 2819.3,367.8 2832.7,367.8 						"/>
						<polygon class="st0" points="2868,361.2 2873.4,361.2 2867.3,354.7 2870.9,354.7 2865.8,349.2 2860.7,343.7 2855.6,349.2 
							2850.5,354.7 2854.1,354.7 2848,361.2 2853.4,361.2 2847.3,367.8 2860.7,367.8 2874.2,367.8 						"/>
					</g>
				</g>
			</g>
		</g>
		<g>
			<g>
				<g>
					<g>
						<path class="st1" d="M2835.5,362.9l-1-5.1l-5.3-27.4c-1.6-8.5-9.8-14-18.3-12.4l0,0c-0.2,0-0.3,0.1-0.5,0.1
							c-8.2,1.8-13.5,9.9-11.9,18.2l6.3,32.5c1.6,8.5,9.8,14,18.3,12.4l0,0C2831.6,379.6,2837.1,371.4,2835.5,362.9z"/>
						<path class="st4" d="M2835.5,362.9l-1-5.1l-5.3-27.4c-1.6-8.5-9.8-14-18.3-12.4l0,0c-0.2,0-0.3,0.1-0.5,0.1
							c-8.2,1.8-13.5,9.9-11.9,18.2l6.3,32.5c1.6,8.5,9.8,14,18.3,12.4l0,0C2831.6,379.6,2837.1,371.4,2835.5,362.9z"/>
					</g>
					<line class="st4" x1="2799.6" y1="342" x2="2817" y2="338.2"/>
					<line class="st4" x1="2802.7" y1="350.5" x2="2820.1" y2="346.6"/>
				</g>
			</g>
			<g>
				<g>
					<g>
						<path class="st1" d="M2844.5,362.9l1-5.1l5.3-27.4c1.6-8.5,9.8-14,18.3-12.4l0,0c0.2,0,0.3,0.1,0.5,0.1
							c8.2,1.8,13.5,9.9,11.9,18.2l-6.3,32.5c-1.6,8.5-9.8,14-18.3,12.4l0,0C2848.4,379.6,2842.9,371.4,2844.5,362.9z"/>
						<path class="st4" d="M2844.5,362.9l1-5.1l5.3-27.4c1.6-8.5,9.8-14,18.3-12.4l0,0c0.2,0,0.3,0.1,0.5,0.1
							c8.2,1.8,13.5,9.9,11.9,18.2l-6.3,32.5c-1.6,8.5-9.8,14-18.3,12.4l0,0C2848.4,379.6,2842.9,371.4,2844.5,362.9z"/>
					</g>
					<line class="st4" x1="2880.4" y1="342" x2="2863" y2="338.2"/>
					<line class="st4" x1="2877.3" y1="350.5" x2="2859.9" y2="346.6"/>
				</g>
			</g>
		</g>
	</g>
</g>
</svg>
