<svg version="1.1" id="Layer_1" xmlns="http://www.w3.org/2000/svg" xmlns:xlink="http://www.w3.org/1999/xlink" x="0px" y="0px"
	 viewBox="0 0 226.8 226.8" style="enable-background:new 0 0 226.8 226.8;" xml:space="preserve">
<style type="text/css">
	.st0{fill:#E4001C;}
	.st1{fill:#F8F8E5;}
	.st2{fill:#006A68;stroke:#F8F8E5;stroke-miterlimit:10;}
	.st3{fill:#F6F6E3;}
	.st4{fill:none;stroke:#E4001C;stroke-width:4;stroke-miterlimit:10;}
	.st5{fill:none;stroke:#D60D22;stroke-width:4;stroke-miterlimit:10;}
	
		.st6{clip-path:url(#SVGID_00000061432807296761270440000004540533021720900543_);fill:#F8F8E5;stroke:#E4001C;stroke-width:4;stroke-miterlimit:10;}
	.st7{clip-path:url(#SVGID_00000023243416983059772170000006479282973224956555_);}
	
		.st8{clip-path:url(#SVGID_00000051379395066827530710000017214001311785296297_);fill:#F8F8E5;stroke:#E4001C;stroke-width:4;stroke-miterlimit:10;}
	.st9{clip-path:url(#SVGID_00000049940555409828310100000007895771583947388308_);}
	.st10{fill:#E7E7D8;}
	.st11{clip-path:url(#SVGID_00000065771349822613616220000008864604427050852237_);}
	.st12{fill:#F8F8E5;stroke:#E4001C;stroke-width:4;stroke-miterlimit:10;}
	.st13{fill:none;stroke:#E4001C;stroke-width:4;stroke-linecap:round;stroke-linejoin:round;stroke-miterlimit:10;}
	
		.st14{clip-path:url(#SVGID_00000044894986820270208600000006513558124049478528_);fill:#FFFFFF;stroke:#E4001C;stroke-width:4;stroke-linecap:round;stroke-linejoin:round;stroke-miterlimit:10;}
	.st15{clip-path:url(#SVGID_00000060737857138709122180000012218618026821218723_);fill:#E4001C;}
	
		.st16{clip-path:url(#SVGID_00000071533017027223685570000016838722254837617027_);fill:#FFFFFF;stroke:#E4001C;stroke-width:4;stroke-linecap:round;stroke-linejoin:round;stroke-miterlimit:10;}
	.st17{clip-path:url(#SVGID_00000040558714010234626750000008624860626781007235_);fill:#E4001C;}
	.st18{clip-path:url(#SVGID_00000030448565748795577110000012304552460524437940_);}
	
		.st19{clip-path:url(#SVGID_00000065766212969126002720000009933713833752253879_);fill:#F8F8E5;stroke:#E4001C;stroke-width:4;stroke-miterlimit:10;}
	.st20{clip-path:url(#SVGID_00000016054652426015172420000006192276019686508725_);}
	
		.st21{clip-path:url(#SVGID_00000133487656792347080350000004810606038014144134_);fill:#F8F8E5;stroke:#E4001C;stroke-width:4;stroke-miterlimit:10;}
	.st22{clip-path:url(#SVGID_00000007393757258246331530000013556663784649190789_);}
	.st23{clip-path:url(#SVGID_00000029746978266908423140000002737075416576174522_);}
	.st24{clip-path:url(#SVGID_00000087403723551896884190000013016295826356715395_);}
	.st25{clip-path:url(#SVGID_00000017496130114718728810000001874168957357873087_);}
</style>
<g id="우측사이드버튼_00000178900888839723486600000011079304992226036410_">
	<rect x="1533.4" y="100.6" class="st0" width="200" height="25.6"/>
	<rect x="1533.4" y="164.7" class="st0" width="200" height="25.6"/>
	<rect x="1533.4" y="36.5" class="st0" width="200" height="25.6"/>
</g>
<g>
	<circle class="st0" cx="873.4" cy="115.2" r="100"/>
	<path class="st1" d="M900.2,126.3l47.4-9c2.5-0.5,2.5-4,0-4.5l-47.4-9c-1.6-0.3-2.4-2.1-1.5-3.5l7.9-11.5c2.9-4.3-2.3-9.4-6.6-6.5
		l-11.7,7.8c-1.4,0.9-3.2,0.1-3.6-1.4l-9.1-46.5c-0.5-2.5-4.1-2.5-4.5,0L862,88.7c-0.3,1.6-2.2,2.4-3.6,1.4l-11.7-7.8
		c-4.3-2.9-9.6,2.2-6.6,6.5l7.9,11.5c0.9,1.3,0.2,3.2-1.5,3.5l-47.4,9c-2.5,0.5-2.5,4,0,4.5l47.4,9c1.6,0.3,2.4,2.1,1.5,3.5
		l-7.9,11.5c-2.9,4.3,2.3,9.4,6.6,6.5l11.7-7.8c1.4-0.9,3.2-0.1,3.6,1.4l9.1,46.5c0.5,2.5,4.1,2.5,4.5,0l9.1-46.5
		c0.3-1.6,2.2-2.4,3.6-1.4l11.7,7.8c4.3,2.9,9.6-2.2,6.6-6.5l-7.9-11.5C897.8,128.5,898.6,126.7,900.2,126.3z"/>
</g>
<g>
	<circle class="st2" cx="113.4" cy="113.4" r="112"/>
	<path class="st1" d="M143.4,126.2l53.1-10.2c2.8-0.6,2.8-4.6,0-5l-53.1-10.2c-1.8-0.3-2.7-2.5-1.7-4l8.8-13.1
		c3.2-4.8-2.6-10.7-7.4-7.4l-13.1,8.8c-1.6,1-3.6,0.2-4-1.7l-10.2-53.1c-0.6-2.8-4.6-2.8-5,0l-10.2,53.1c-0.3,1.8-2.5,2.7-4,1.7
		l-13.1-8.8c-4.8-3.2-10.7,2.6-7.4,7.4l8.8,13.1c1,1.6,0.2,3.6-1.7,4l-53.1,10.2c-2.8,0.6-2.8,4.6,0,5l53.1,10.2
		c1.8,0.3,2.7,2.5,1.7,4l-8.8,13.1c-3.2,4.8,2.6,10.7,7.4,7.4l13.1-8.8c1.6-1,3.6-0.2,4,1.7l10.2,53.1c0.6,2.8,4.6,2.8,5,0
		l10.2-53.1c0.3-1.8,2.5-2.7,4-1.7l13.1,8.8c4.8,3.2,10.7-2.6,7.4-7.4l-8.8-13.1C140.7,128.6,141.6,126.5,143.4,126.2z"/>
</g>
<g id="우측사이드버튼">
	<rect x="1153.4" y="100.6" class="st3" width="200" height="25.6"/>
	<rect x="1153.4" y="164.7" class="st3" width="200" height="25.6"/>
	<rect x="1153.4" y="36.5" class="st3" width="200" height="25.6"/>
</g>
<g>
	<g>
		<g>
			<g>
				<path class="st1" d="M2338.4,209.8L2338.4,209.8c-0.1-0.2-0.1-0.3-0.2-0.5l-4.8,2c-8,3.3-11.7,12.5-8.4,20.5l0,0
					c3.3,8,12.5,11.7,20.5,8.4l30.5-12.8c7.8-3.3,11.6-12.2,8.6-20l-25.7,10.8C2350.9,221.6,2341.7,217.8,2338.4,209.8z"/>
				<path class="st4" d="M2338.4,209.8L2338.4,209.8c-0.1-0.2-0.1-0.3-0.2-0.5l-4.8,2c-8,3.3-11.7,12.5-8.4,20.5l0,0
					c3.3,8,12.5,11.7,20.5,8.4l30.5-12.8c7.8-3.3,11.6-12.2,8.6-20l-25.7,10.8C2350.9,221.6,2341.7,217.8,2338.4,209.8z"/>
			</g>
			<g>
				<path class="st0" d="M2384.4,207c-3.3-8-12.5-11.7-20.5-8.4l-25.7,10.8c0.1,0.2,0.1,0.3,0.2,0.5l0,0c3.3,8,12.5,11.7,20.5,8.4
					l25.7-10.8C2384.5,207.3,2384.5,207.1,2384.4,207L2384.4,207z"/>
				<path class="st5" d="M2384.4,207c-3.3-8-12.5-11.7-20.5-8.4l-25.7,10.8c0.1,0.2,0.1,0.3,0.2,0.5l0,0c3.3,8,12.5,11.7,20.5,8.4
					l25.7-10.8C2384.5,207.3,2384.5,207.1,2384.4,207L2384.4,207z"/>
			</g>
		</g>
		<g>
			<g>
				<path class="st1" d="M2448.4,209.8L2448.4,209.8c0.1-0.2,0.1-0.3,0.2-0.5l4.8,2c8,3.3,11.7,12.5,8.4,20.5l0,0
					c-3.3,8-12.5,11.7-20.5,8.4l-30.5-12.8c-7.8-3.3-11.6-12.2-8.6-20l25.7,10.8C2435.9,221.6,2445.1,217.8,2448.4,209.8z"/>
				<path class="st4" d="M2448.4,209.8L2448.4,209.8c0.1-0.2,0.1-0.3,0.2-0.5l4.8,2c8,3.3,11.7,12.5,8.4,20.5l0,0
					c-3.3,8-12.5,11.7-20.5,8.4l-30.5-12.8c-7.8-3.3-11.6-12.2-8.6-20l25.7,10.8C2435.9,221.6,2445.1,217.8,2448.4,209.8z"/>
			</g>
			<g>
				<path class="st0" d="M2402.4,207c3.3-8,12.5-11.7,20.5-8.4l25.7,10.8c-0.1,0.2-0.1,0.3-0.2,0.5l0,0c-3.3,8-12.5,11.7-20.5,8.4
					l-25.7-10.8C2402.3,207.3,2402.3,207.1,2402.4,207L2402.4,207z"/>
				<path class="st5" d="M2402.4,207c3.3-8,12.5-11.7,20.5-8.4l25.7,10.8c-0.1,0.2-0.1,0.3-0.2,0.5l0,0c-3.3,8-12.5,11.7-20.5,8.4
					l-25.7-10.8C2402.3,207.3,2402.3,207.1,2402.4,207L2402.4,207z"/>
			</g>
		</g>
		<g>
			<g>
				<g>
					<path class="st1" d="M2393.4,223.2L2393.4,223.2c-33.4,0-60.4-27-60.4-60.4v-117c0-33.4,27-60.4,60.4-60.4l0,0
						c33.4,0,60.4,27,60.4,60.4v117C2453.8,196.1,2426.8,223.2,2393.4,223.2z"/>
					<path class="st4" d="M2393.4,223.2L2393.4,223.2c-33.4,0-60.4-27-60.4-60.4v-117c0-33.4,27-60.4,60.4-60.4l0,0
						c33.4,0,60.4,27,60.4,60.4v117C2453.8,196.1,2426.8,223.2,2393.4,223.2z"/>
				</g>
				<g>
					<g>
						<path id="SVGID_00000057131831479993142920000013054279054937881016_" class="st1" d="M2412.4,116.7L2412.4,116.7
							c-10,0-18-8.1-18-18V32.8c0-10,8.1-18,18-18l0,0c10,0,18,8.1,18,18v65.9C2430.4,108.7,2422.4,116.7,2412.4,116.7z"/>
					</g>
					<g>
						<g>
							<defs>
								<path id="SVGID_1_" d="M2412.4,116.7L2412.4,116.7c-10,0-18-8.1-18-18V32.8c0-10,8.1-18,18-18l0,0c10,0,18,8.1,18,18v65.9
									C2430.4,108.7,2422.4,116.7,2412.4,116.7z"/>
							</defs>
							<clipPath id="SVGID_00000102514065316095292880000004651402666171866757_">
								<use xlink:href="#SVGID_1_"  style="overflow:visible;"/>
							</clipPath>
							
								<path style="clip-path:url(#SVGID_00000102514065316095292880000004651402666171866757_);fill:#F8F8E5;stroke:#E4001C;stroke-width:4;stroke-miterlimit:10;" d="
								M2412.4,116.7L2412.4,116.7c-10,0-18-8.1-18-18V32.8c0-10,8.1-18,18-18l0,0c10,0,18,8.1,18,18v65.9
								C2430.4,108.7,2422.4,116.7,2412.4,116.7z"/>
						</g>
					</g>
					<g>
						<g>
							<defs>
								<path id="SVGID_00000080927361053476373840000008127244344407075972_" d="M2412.4,116.7L2412.4,116.7c-10,0-18-8.1-18-18
									V32.8c0-10,8.1-18,18-18l0,0c10,0,18,8.1,18,18v65.9C2430.4,108.7,2422.4,116.7,2412.4,116.7z"/>
							</defs>
							<clipPath id="SVGID_00000090295543581867482100000015328110644570408081_">
								<use xlink:href="#SVGID_00000080927361053476373840000008127244344407075972_"  style="overflow:visible;"/>
							</clipPath>
							<g style="clip-path:url(#SVGID_00000090295543581867482100000015328110644570408081_);">
								<path class="st0" d="M2404.1,115.1L2404.1,115.1c-7.5,0-13.6-6.1-13.6-13.6V51.9c0-7.5,6.1-13.6,13.6-13.6l0,0
									c7.5,0,13.6,6.1,13.6,13.6v49.6C2417.6,109,2411.6,115.1,2404.1,115.1z"/>
							</g>
						</g>
					</g>
					<g>
						<path id="SVGID_00000126283100056444488080000012885731578059227295_" class="st4" d="M2412.4,116.7L2412.4,116.7
							c-10,0-18-8.1-18-18V32.8c0-10,8.1-18,18-18l0,0c10,0,18,8.1,18,18v65.9C2430.4,108.7,2422.4,116.7,2412.4,116.7z"/>
					</g>
				</g>
				<g>
					<g>
						<path id="SVGID_00000001634776274629611300000008787068765787836040_" class="st1" d="M2370.4,116.7L2370.4,116.7
							c-10,0-18-8.1-18-18V32.8c0-10,8.1-18,18-18l0,0c10,0,18,8.1,18,18v65.9C2388.4,108.7,2380.4,116.7,2370.4,116.7z"/>
					</g>
					<g>
						<g>
							<defs>
								<path id="SVGID_00000099648551151896796560000004461213019839907491_" d="M2370.4,116.7L2370.4,116.7c-10,0-18-8.1-18-18
									V32.8c0-10,8.1-18,18-18l0,0c10,0,18,8.1,18,18v65.9C2388.4,108.7,2380.4,116.7,2370.4,116.7z"/>
							</defs>
							<clipPath id="SVGID_00000102545955780510152700000015018615183383192709_">
								<use xlink:href="#SVGID_00000099648551151896796560000004461213019839907491_"  style="overflow:visible;"/>
							</clipPath>
							
								<path style="clip-path:url(#SVGID_00000102545955780510152700000015018615183383192709_);fill:#F8F8E5;stroke:#E4001C;stroke-width:4;stroke-miterlimit:10;" d="
								M2370.4,116.7L2370.4,116.7c-10,0-18-8.1-18-18V32.8c0-10,8.1-18,18-18l0,0c10,0,18,8.1,18,18v65.9
								C2388.4,108.7,2380.4,116.7,2370.4,116.7z"/>
						</g>
					</g>
					<g>
						<g>
							<defs>
								<path id="SVGID_00000054977637464387274710000004703075119797890178_" d="M2370.4,116.7L2370.4,116.7c-10,0-18-8.1-18-18
									V32.8c0-10,8.1-18,18-18l0,0c10,0,18,8.1,18,18v65.9C2388.4,108.7,2380.4,116.7,2370.4,116.7z"/>
							</defs>
							<clipPath id="SVGID_00000024688461949836772410000011261682656979888001_">
								<use xlink:href="#SVGID_00000054977637464387274710000004703075119797890178_"  style="overflow:visible;"/>
							</clipPath>
							<g style="clip-path:url(#SVGID_00000024688461949836772410000011261682656979888001_);">
								<path class="st0" d="M2362.1,115.1L2362.1,115.1c-7.5,0-13.6-6.1-13.6-13.6V51.9c0-7.5,6.1-13.6,13.6-13.6l0,0
									c7.5,0,13.6,6.1,13.6,13.6v49.6C2375.6,109,2369.6,115.1,2362.1,115.1z"/>
							</g>
						</g>
					</g>
					<g>
						<path id="SVGID_00000036934616546424566260000000137016817221280665_" class="st4" d="M2370.4,116.7L2370.4,116.7
							c-10,0-18-8.1-18-18V32.8c0-10,8.1-18,18-18l0,0c10,0,18,8.1,18,18v65.9C2388.4,108.7,2380.4,116.7,2370.4,116.7z"/>
					</g>
				</g>
				<g>
					<g>
						<path class="st10" d="M2393.4-14.7L2393.4-14.7c-1.5,0-3,0.1-4.5,0.2c31.3,2.3,55.9,28.4,55.9,60.2v117
							c0,31.8-24.6,57.9-55.9,60.2c1.5,0.1,3,0.2,4.5,0.2l0,0c33.4,0,60.4-27,60.4-60.4v-117C2453.8,12.4,2426.8-14.7,2393.4-14.7z"
							/>
					</g>
				</g>
				<g>
					<g>
						<g>
							<path class="st4" d="M2393.4,132L2393.4,132c-33.4,0-60.4-13.5-60.4-30.2v60.9c0,33.4,27,60.4,60.4,60.4l0,0
								c33.4,0,60.4-27,60.4-60.4v-60.9C2453.8,118.5,2426.8,132,2393.4,132z"/>
						</g>
					</g>
				</g>
			</g>
			<g>
				<path class="st4" d="M2393.4,223.2L2393.4,223.2c-33.4,0-60.4-27-60.4-60.4v-117c0-33.4,27-60.4,60.4-60.4l0,0
					c33.4,0,60.4,27,60.4,60.4v117C2453.8,196.1,2426.8,223.2,2393.4,223.2z"/>
			</g>
			<g>
				<g>
					<g>
						<defs>
							<path id="SVGID_00000058560048501175774570000006973238329191095453_" d="M2393.4,132L2393.4,132
								c-33.4,0-60.4-13.5-60.4-30.2v60.9c0,33.4,27,60.4,60.4,60.4l0,0c33.4,0,60.4-27,60.4-60.4v-60.9
								C2453.8,118.5,2426.8,132,2393.4,132z"/>
						</defs>
						<clipPath id="SVGID_00000021101723503529506840000013393983770892844976_">
							<use xlink:href="#SVGID_00000058560048501175774570000006973238329191095453_"  style="overflow:visible;"/>
						</clipPath>
						<g style="clip-path:url(#SVGID_00000021101723503529506840000013393983770892844976_);">
							<g>
								<circle class="st0" cx="2308.8" cy="145" r="10"/>
								<circle class="st0" cx="2308.8" cy="110.3" r="10"/>
								<circle class="st0" cx="2308.8" cy="214.6" r="10"/>
								<circle class="st0" cx="2308.8" cy="179.8" r="10"/>
							</g>
							<g>
								<circle class="st0" cx="2342.9" cy="145" r="10"/>
								<circle class="st0" cx="2342.9" cy="110.3" r="10"/>
								<circle class="st0" cx="2342.9" cy="214.6" r="10"/>
								<circle class="st0" cx="2342.9" cy="179.8" r="10"/>
							</g>
							<g>
								<circle class="st0" cx="2377.1" cy="145" r="10"/>
								<circle class="st0" cx="2377.1" cy="110.3" r="10"/>
								<circle class="st0" cx="2377.1" cy="214.6" r="10"/>
								<circle class="st0" cx="2377.1" cy="179.8" r="10"/>
							</g>
							<g>
								<circle class="st0" cx="2411.2" cy="145" r="10"/>
								<circle class="st0" cx="2411.2" cy="110.3" r="10"/>
								<circle class="st0" cx="2411.2" cy="214.6" r="10"/>
								<circle class="st0" cx="2411.2" cy="179.8" r="10"/>
							</g>
							<g>
								<circle class="st0" cx="2445.3" cy="145" r="10"/>
								<circle class="st0" cx="2445.3" cy="110.3" r="10"/>
								<circle class="st0" cx="2445.3" cy="214.6" r="10"/>
								<circle class="st0" cx="2445.3" cy="179.8" r="10"/>
							</g>
							<g>
								<circle class="st0" cx="2479.5" cy="145" r="10"/>
								<circle class="st0" cx="2479.5" cy="110.3" r="10"/>
								<circle class="st0" cx="2479.5" cy="214.6" r="10"/>
								<circle class="st0" cx="2479.5" cy="179.8" r="10"/>
							</g>
						</g>
					</g>
				</g>
			</g>
		</g>
	</g>
</g>
<g>
	<g>
		<g>
			<g>
				<path class="st12" d="M2013.4,232.3L2013.4,232.3c-33.4,0-60.4-27-60.4-60.4v-117c0-33.4,27-60.4,60.4-60.4l0,0
					c33.4,0,60.4,27,60.4,60.4v117C2073.8,205.3,2046.8,232.3,2013.4,232.3z"/>
				<g>
					<path class="st10" d="M2013.4-5.5L2013.4-5.5c-1.5,0-3,0.1-4.5,0.2c31.3,2.3,55.9,28.4,55.9,60.2v117
						c0,31.8-24.6,57.9-55.9,60.2c1.5,0.1,3,0.2,4.5,0.2l0,0c33.4,0,60.4-27,60.4-60.4v-117C2073.8,21.5,2046.8-5.5,2013.4-5.5z"/>
				</g>
				<g>
					<path class="st13" d="M2013.4,141.2L2013.4,141.2c-33.4,0-60.4-13.5-60.4-30.2v60.9c0,33.4,27,60.4,60.4,60.4l0,0
						c33.4,0,60.4-27,60.4-60.4V111C2073.8,127.7,2046.8,141.2,2013.4,141.2z"/>
				</g>
				<g>
					<g>
						<g>
							<defs>
								<path id="SVGID_00000104682880275380389000000012559164141192736432_" d="M2031.4,125.9L2031.4,125.9c-10,0-18-8.1-18-18V42
									c0-10,8.1-18,18-18l0,0c10,0,18,8.1,18,18v65.9C2049.5,117.8,2041.4,125.9,2031.4,125.9z"/>
							</defs>
							<clipPath id="SVGID_00000158008302615607675960000015394098902117190055_">
								<use xlink:href="#SVGID_00000104682880275380389000000012559164141192736432_"  style="overflow:visible;"/>
							</clipPath>
							
								<path style="clip-path:url(#SVGID_00000158008302615607675960000015394098902117190055_);fill:#FFFFFF;stroke:#E4001C;stroke-width:4;stroke-linecap:round;stroke-linejoin:round;stroke-miterlimit:10;" d="
								M2031.4,125.9L2031.4,125.9c-10,0-18-8.1-18-18V42c0-10,8.1-18,18-18l0,0c10,0,18,8.1,18,18v65.9
								C2049.5,117.8,2041.4,125.9,2031.4,125.9z"/>
						</g>
					</g>
					<g>
						<g>
							<defs>
								<path id="SVGID_00000005963093695807350430000013772860006542067861_" d="M2031.4,125.9L2031.4,125.9c-10,0-18-8.1-18-18V42
									c0-10,8.1-18,18-18l0,0c10,0,18,8.1,18,18v65.9C2049.5,117.8,2041.4,125.9,2031.4,125.9z"/>
							</defs>
							<clipPath id="SVGID_00000088853561803777030230000000299069149559664300_">
								<use xlink:href="#SVGID_00000005963093695807350430000013772860006542067861_"  style="overflow:visible;"/>
							</clipPath>
							<path style="clip-path:url(#SVGID_00000088853561803777030230000000299069149559664300_);fill:#E4001C;" d="M2037.1,96.6
								L2037.1,96.6c-7.5,0-13.6-6.1-13.6-13.6V33.4c0-7.5,6.1-13.6,13.6-13.6l0,0c7.5,0,13.6,6.1,13.6,13.6V83
								C2050.7,90.6,2044.6,96.6,2037.1,96.6z"/>
						</g>
					</g>
					<g>
						<path id="SVGID_00000030458817144694396200000017822544509678491545_" class="st13" d="M2031.4,125.9L2031.4,125.9
							c-10,0-18-8.1-18-18V42c0-10,8.1-18,18-18l0,0c10,0,18,8.1,18,18v65.9C2049.5,117.8,2041.4,125.9,2031.4,125.9z"/>
					</g>
				</g>
				<g>
					<g>
						<g>
							<defs>
								<path id="SVGID_00000145016663907214958600000006997283324297676697_" d="M1990.4,125.9L1990.4,125.9c-10,0-18-8.1-18-18V42
									c0-10,8.1-18,18-18l0,0c10,0,18,8.1,18,18v65.9C2008.4,117.8,2000.4,125.9,1990.4,125.9z"/>
							</defs>
							<clipPath id="SVGID_00000040541468002846789850000007450962883243347842_">
								<use xlink:href="#SVGID_00000145016663907214958600000006997283324297676697_"  style="overflow:visible;"/>
							</clipPath>
							
								<path style="clip-path:url(#SVGID_00000040541468002846789850000007450962883243347842_);fill:#FFFFFF;stroke:#E4001C;stroke-width:4;stroke-linecap:round;stroke-linejoin:round;stroke-miterlimit:10;" d="
								M1990.4,125.9L1990.4,125.9c-10,0-18-8.1-18-18V42c0-10,8.1-18,18-18l0,0c10,0,18,8.1,18,18v65.9
								C2008.4,117.8,2000.4,125.9,1990.4,125.9z"/>
						</g>
					</g>
					<g>
						<g>
							<defs>
								<path id="SVGID_00000008131381256722488920000013458841620908175017_" d="M1990.4,125.9L1990.4,125.9c-10,0-18-8.1-18-18V42
									c0-10,8.1-18,18-18l0,0c10,0,18,8.1,18,18v65.9C2008.4,117.8,2000.4,125.9,1990.4,125.9z"/>
							</defs>
							<clipPath id="SVGID_00000101783157535093989700000006654455149767717567_">
								<use xlink:href="#SVGID_00000008131381256722488920000013458841620908175017_"  style="overflow:visible;"/>
							</clipPath>
							<path style="clip-path:url(#SVGID_00000101783157535093989700000006654455149767717567_);fill:#E4001C;" d="M1996,96.6
								L1996,96.6c-7.5,0-13.6-6.1-13.6-13.6V33.4c0-7.5,6.1-13.6,13.6-13.6l0,0c7.5,0,13.6,6.1,13.6,13.6V83
								C2009.6,90.6,2003.5,96.6,1996,96.6z"/>
						</g>
					</g>
					<g>
						<path id="SVGID_00000034050059376852662260000001701035849453761213_" class="st13" d="M1990.4,125.9L1990.4,125.9
							c-10,0-18-8.1-18-18V42c0-10,8.1-18,18-18l0,0c10,0,18,8.1,18,18v65.9C2008.4,117.8,2000.4,125.9,1990.4,125.9z"/>
					</g>
				</g>
			</g>
			<g>
				<g>
					<path class="st0" d="M2013.4,230.8c-13.6,0-27.1-4.8-37.6-13.5c-10.4-8.7-17.7-20.8-20.3-34.1c-1.1-5.5-1.1-11-1.1-16.5
						c0-6.8,0-13.6,0-20.5c0-9.6,0-19.3,0-28.9c0-10,0-19.9,0-29.9c0-7.8,0-15.5,0-23.3c0-3.3,0-6.6,0-9.9
						c0.2-13.7,5.2-27.2,14.1-37.6c8.9-10.3,21.1-17.3,34.5-19.7c13.6-2.4,27.9,0.1,39.8,7c11.7,6.8,20.9,17.6,25.6,30.2
						c2.5,6.5,3.7,13.5,3.8,20.5c0,0.9,0,1.9,0,2.8c0,5.8,0,11.5,0,17.3c0,9.2,0,18.4,0,27.6c0,10.1,0,20.2,0,30.3
						c0,8.5,0,17,0,25.6c0,4.4,0,8.8,0,13.3c0,11-2.8,21.7-8.5,31.1c-7,11.5-17.9,20.4-30.5,25
						C2026.9,229.7,2020.2,230.8,2013.4,230.8c-1.9,0-1.9,3,0,3c14.2,0,28-4.9,39-13.9c10.8-8.7,18.4-21.1,21.4-34.6
						c1.3-6,1.5-12.1,1.5-18.2c0-6.9,0-13.7,0-20.6c0-9.8,0-19.7,0-29.5c0-10.1,0-20.2,0-30.3c0-7.8,0-15.6,0-23.4
						c0-4,0.1-8-0.1-11.9c-0.8-14.1-6.5-27.6-15.9-38C2050,3.1,2037.2-4,2023.4-6.2c-14-2.3-28.5,0.3-40.8,7.4
						c-12,6.9-21.4,17.8-26.7,30.6c-3.3,8.1-4.5,16.6-4.5,25.3c0,5.7,0,11.4,0,17.2c0,9.4,0,18.7,0,28.1c0,10.3,0,20.6,0,30.9
						c0,8.6,0,17.1,0,25.7c0,4.3,0,8.5,0,12.8c0,12,3.4,23.8,9.9,33.9c7.5,11.6,18.9,20.5,32,25c6.4,2.2,13.2,3.3,20,3.3
						C2015.3,233.8,2015.3,230.8,2013.4,230.8z"/>
				</g>
			</g>
		</g>
		<g>
			<g>
				<g>
					<defs>
						<path id="SVGID_00000094612300822679119630000015054585003576741769_" d="M2013.4,141.2L2013.4,141.2
							c-33.4,0-60.4-13.5-60.4-30.2v60.9c0,33.4,27,60.4,60.4,60.4l0,0c33.4,0,60.4-27,60.4-60.4V111
							C2073.8,127.7,2046.8,141.2,2013.4,141.2z"/>
					</defs>
					<clipPath id="SVGID_00000013169177977549426720000002672348540622593171_">
						<use xlink:href="#SVGID_00000094612300822679119630000015054585003576741769_"  style="overflow:visible;"/>
					</clipPath>
					<g style="clip-path:url(#SVGID_00000013169177977549426720000002672348540622593171_);">
						<g>
							<polygon class="st0" points="1956,240.3 1967.3,238.1 1956,235.9 1960.3,229.6 1953.9,233.9 1951.7,222.5 1949.6,233.9 
								1943.2,229.6 1947.5,235.9 1936.2,238.1 1947.5,240.3 1943.2,246.7 1949.6,242.4 1951.7,253.7 1953.9,242.4 1960.3,246.7 
															"/>
							<polygon class="st0" points="1956,194.6 1967.3,192.4 1956,190.2 1960.3,183.8 1953.9,188.1 1951.7,176.8 1949.6,188.1 
								1943.2,183.8 1947.5,190.2 1936.2,192.4 1947.5,194.6 1943.2,200.9 1949.6,196.6 1951.7,208 1953.9,196.6 1960.3,200.9 
															"/>
							<polygon class="st0" points="1956,148.8 1967.3,146.6 1956,144.4 1960.3,138.1 1953.9,142.4 1951.7,131 1949.6,142.4 
								1943.2,138.1 1947.5,144.4 1936.2,146.6 1947.5,148.8 1943.2,155.2 1949.6,150.9 1951.7,162.2 1953.9,150.9 1960.3,155.2 
															"/>
						</g>
						<g>
							<polygon class="st0" points="1985.9,217.4 1997.3,215.3 1985.9,213.1 1990.2,206.7 1983.9,211 1981.7,199.7 1979.5,211 
								1973.2,206.7 1977.5,213.1 1966.1,215.3 1977.5,217.4 1973.2,223.8 1979.5,219.5 1981.7,230.8 1983.9,219.5 1990.2,223.8 
															"/>
							<polygon class="st0" points="1985.9,171.7 1997.3,169.5 1985.9,167.3 1990.2,160.9 1983.9,165.3 1981.7,153.9 1979.5,165.3 
								1973.2,160.9 1977.5,167.3 1966.1,169.5 1977.5,171.7 1973.2,178 1979.5,173.7 1981.7,185.1 1983.9,173.7 1990.2,178 							
								"/>
						</g>
						<g>
							<polygon class="st0" points="2015.9,240.3 2027.2,238.1 2015.9,235.9 2020.2,229.6 2013.8,233.9 2011.7,222.5 2009.5,233.9 
								2003.1,229.6 2007.4,235.9 1996.1,238.1 2007.4,240.3 2003.1,246.7 2009.5,242.4 2011.7,253.7 2013.8,242.4 2020.2,246.7 
															"/>
							<polygon class="st0" points="2015.9,194.6 2027.2,192.4 2015.9,190.2 2020.2,183.8 2013.8,188.1 2011.7,176.8 2009.5,188.1 
								2003.1,183.8 2007.4,190.2 1996.1,192.4 2007.4,194.6 2003.1,200.9 2009.5,196.6 2011.7,208 2013.8,196.6 2020.2,200.9 
															"/>
							<polygon class="st0" points="2015.9,148.8 2027.2,146.6 2015.9,144.4 2020.2,138.1 2013.8,142.4 2011.7,131 2009.5,142.4 
								2003.1,138.1 2007.4,144.4 1996.1,146.6 2007.4,148.8 2003.1,155.2 2009.5,150.9 2011.7,162.2 2013.8,150.9 2020.2,155.2 
															"/>
						</g>
						<g>
							<polygon class="st0" points="2045.9,217.4 2057.2,215.3 2045.9,213.1 2050.2,206.7 2043.8,211 2041.6,199.7 2039.4,211 
								2033.1,206.7 2037.4,213.1 2026,215.3 2037.4,217.4 2033.1,223.8 2039.4,219.5 2041.6,230.8 2043.8,219.5 2050.2,223.8 
															"/>
							<polygon class="st0" points="2045.9,171.7 2057.2,169.5 2045.9,167.3 2050.2,160.9 2043.8,165.3 2041.6,153.9 2039.4,165.3 
								2033.1,160.9 2037.4,167.3 2026,169.5 2037.4,171.7 2033.1,178 2039.4,173.7 2041.6,185.1 2043.8,173.7 2050.2,178 							
								"/>
						</g>
						<g>
							<polygon class="st0" points="2075.8,240.3 2087.2,238.1 2075.8,235.9 2080.1,229.6 2073.8,233.9 2071.6,222.5 2069.4,233.9 
								2063,229.6 2067.4,235.9 2056,238.1 2067.4,240.3 2063,246.7 2069.4,242.4 2071.6,253.7 2073.8,242.4 2080.1,246.7 							
								"/>
							<polygon class="st0" points="2075.8,194.6 2087.2,192.4 2075.8,190.2 2080.1,183.8 2073.8,188.1 2071.6,176.8 2069.4,188.1 
								2063,183.8 2067.4,190.2 2056,192.4 2067.4,194.6 2063,200.9 2069.4,196.6 2071.6,208 2073.8,196.6 2080.1,200.9 							"/>
							<polygon class="st0" points="2075.8,148.8 2087.2,146.6 2075.8,144.4 2080.1,138.1 2073.8,142.4 2071.6,131 2069.4,142.4 
								2063,138.1 2067.4,144.4 2056,146.6 2067.4,148.8 2063,155.2 2069.4,150.9 2071.6,162.2 2073.8,150.9 2080.1,155.2 							
								"/>
						</g>
					</g>
				</g>
			</g>
		</g>
	</g>
</g>
<g>
	<g>
		<g>
			<g>
				<path class="st1" d="M2773.4,225.8L2773.4,225.8c-33.4,0-60.4-27-60.4-60.4v-117c0-33.4,27-60.4,60.4-60.4l0,0
					c33.4,0,60.4,27,60.4,60.4v117C2833.8,198.7,2806.8,225.8,2773.4,225.8z"/>
				<path class="st4" d="M2773.4,225.8L2773.4,225.8c-33.4,0-60.4-27-60.4-60.4v-117c0-33.4,27-60.4,60.4-60.4l0,0
					c33.4,0,60.4,27,60.4,60.4v117C2833.8,198.7,2806.8,225.8,2773.4,225.8z"/>
			</g>
			<g>
				<g>
					<path id="SVGID_00000016756393635386504620000018323859205417008539_" class="st1" d="M2750.4,119.3L2750.4,119.3
						c-10,0-18-8.1-18-18V35.4c0-10,8.1-18,18-18l0,0c10,0,18,8.1,18,18v65.9C2768.4,111.2,2760.4,119.3,2750.4,119.3z"/>
				</g>
				<g>
					<g>
						<defs>
							<path id="SVGID_00000051383786505477777690000009533803386668381847_" d="M2750.4,119.3L2750.4,119.3c-10,0-18-8.1-18-18
								V35.4c0-10,8.1-18,18-18l0,0c10,0,18,8.1,18,18v65.9C2768.4,111.2,2760.4,119.3,2750.4,119.3z"/>
						</defs>
						<clipPath id="SVGID_00000136393477814406900300000001527406629476736942_">
							<use xlink:href="#SVGID_00000051383786505477777690000009533803386668381847_"  style="overflow:visible;"/>
						</clipPath>
						
							<path style="clip-path:url(#SVGID_00000136393477814406900300000001527406629476736942_);fill:#F8F8E5;stroke:#E4001C;stroke-width:4;stroke-miterlimit:10;" d="
							M2750.4,119.3L2750.4,119.3c-10,0-18-8.1-18-18V35.4c0-10,8.1-18,18-18l0,0c10,0,18,8.1,18,18v65.9
							C2768.4,111.2,2760.4,119.3,2750.4,119.3z"/>
					</g>
				</g>
				<g>
					<g>
						<defs>
							<path id="SVGID_00000121264027902442263590000004134392040741930404_" d="M2750.4,119.3L2750.4,119.3c-10,0-18-8.1-18-18
								V35.4c0-10,8.1-18,18-18l0,0c10,0,18,8.1,18,18v65.9C2768.4,111.2,2760.4,119.3,2750.4,119.3z"/>
						</defs>
						<clipPath id="SVGID_00000078730033153540641720000016786250529453897128_">
							<use xlink:href="#SVGID_00000121264027902442263590000004134392040741930404_"  style="overflow:visible;"/>
						</clipPath>
						<g style="clip-path:url(#SVGID_00000078730033153540641720000016786250529453897128_);">
							<path class="st0" d="M2757.6,106.7L2757.6,106.7c-7.5,0-13.6-6.1-13.6-13.6V43.5c0-7.5,6.1-13.6,13.6-13.6l0,0
								c7.5,0,13.6,6.1,13.6,13.6v49.6C2771.1,100.6,2765.1,106.7,2757.6,106.7z"/>
						</g>
					</g>
				</g>
				<g>
					<path id="SVGID_00000181052417594432447080000004181468900537909152_" class="st4" d="M2750.4,119.3L2750.4,119.3
						c-10,0-18-8.1-18-18V35.4c0-10,8.1-18,18-18l0,0c10,0,18,8.1,18,18v65.9C2768.4,111.2,2760.4,119.3,2750.4,119.3z"/>
				</g>
			</g>
			<g>
				<g>
					<path id="SVGID_00000007427545832288620740000013312073827448041894_" class="st1" d="M2791.4,119.3L2791.4,119.3
						c-10,0-18-8.1-18-18V35.4c0-10,8.1-18,18-18l0,0c10,0,18,8.1,18,18v65.9C2809.5,111.2,2801.4,119.3,2791.4,119.3z"/>
				</g>
				<g>
					<g>
						<defs>
							<path id="SVGID_00000139998641791385913290000013808897780995624074_" d="M2791.4,119.3L2791.4,119.3c-10,0-18-8.1-18-18
								V35.4c0-10,8.1-18,18-18l0,0c10,0,18,8.1,18,18v65.9C2809.5,111.2,2801.4,119.3,2791.4,119.3z"/>
						</defs>
						<clipPath id="SVGID_00000017499330759087551520000012655654098107577272_">
							<use xlink:href="#SVGID_00000139998641791385913290000013808897780995624074_"  style="overflow:visible;"/>
						</clipPath>
						
							<path style="clip-path:url(#SVGID_00000017499330759087551520000012655654098107577272_);fill:#F8F8E5;stroke:#E4001C;stroke-width:4;stroke-miterlimit:10;" d="
							M2791.4,119.3L2791.4,119.3c-10,0-18-8.1-18-18V35.4c0-10,8.1-18,18-18l0,0c10,0,18,8.1,18,18v65.9
							C2809.5,111.2,2801.4,119.3,2791.4,119.3z"/>
					</g>
				</g>
				<g>
					<g>
						<defs>
							<path id="SVGID_00000002363198053889493060000005664936656406975158_" d="M2791.4,119.3L2791.4,119.3c-10,0-18-8.1-18-18
								V35.4c0-10,8.1-18,18-18l0,0c10,0,18,8.1,18,18v65.9C2809.5,111.2,2801.4,119.3,2791.4,119.3z"/>
						</defs>
						<clipPath id="SVGID_00000023972585925559283550000007198584836322665892_">
							<use xlink:href="#SVGID_00000002363198053889493060000005664936656406975158_"  style="overflow:visible;"/>
						</clipPath>
						<g style="clip-path:url(#SVGID_00000023972585925559283550000007198584836322665892_);">
							<path class="st0" d="M2798.6,106.7L2798.6,106.7c-7.5,0-13.6-6.1-13.6-13.6V43.5c0-7.5,6.1-13.6,13.6-13.6l0,0
								c7.5,0,13.6,6.1,13.6,13.6v49.6C2812.2,100.6,2806.1,106.7,2798.6,106.7z"/>
						</g>
					</g>
				</g>
				<g>
					<path id="SVGID_00000018201402745081082520000015009965305604564882_" class="st4" d="M2791.4,119.3L2791.4,119.3
						c-10,0-18-8.1-18-18V35.4c0-10,8.1-18,18-18l0,0c10,0,18,8.1,18,18v65.9C2809.5,111.2,2801.4,119.3,2791.4,119.3z"/>
				</g>
			</g>
			<g>
				<g>
					<path class="st10" d="M2773.4-12.1L2773.4-12.1c-1.5,0-3,0.1-4.5,0.2c31.3,2.3,55.9,28.4,55.9,60.2v117
						c0,31.8-24.6,57.9-55.9,60.2c1.5,0.1,3,0.2,4.5,0.2l0,0c33.4,0,60.4-27,60.4-60.4v-117C2833.8,14.9,2806.8-12.1,2773.4-12.1z"
						/>
				</g>
			</g>
			<g>
				<g>
					<path class="st1" d="M2773.4,134.6L2773.4,134.6c-33.4,0-60.4-13.5-60.4-30.2v60.9c0,33.4,27,60.4,60.4,60.4l0,0
						c33.4,0,60.4-27,60.4-60.4v-60.9C2833.8,121.1,2806.8,134.6,2773.4,134.6z"/>
					<path class="st4" d="M2773.4,134.6L2773.4,134.6c-33.4,0-60.4-13.5-60.4-30.2v60.9c0,33.4,27,60.4,60.4,60.4l0,0
						c33.4,0,60.4-27,60.4-60.4v-60.9C2833.8,121.1,2806.8,134.6,2773.4,134.6z"/>
				</g>
			</g>
			<g>
				<path class="st4" d="M2773.4,225.8L2773.4,225.8c-33.4,0-60.4-27-60.4-60.4v-117c0-33.4,27-60.4,60.4-60.4l0,0
					c33.4,0,60.4,27,60.4,60.4v117C2833.8,198.7,2806.8,225.8,2773.4,225.8z"/>
			</g>
			<g>
				<g>
					<g>
						<defs>
							<path id="SVGID_00000083069242022322875730000004192154478473948848_" d="M2773.4,134.6L2773.4,134.6
								c-33.4,0-60.4-13.5-60.4-30.2v60.9c0,33.4,27,60.4,60.4,60.4l0,0c33.4,0,60.4-27,60.4-60.4v-60.9
								C2833.8,121.1,2806.8,134.6,2773.4,134.6z"/>
						</defs>
						<clipPath id="SVGID_00000047752485666829725230000013824132558928230556_">
							<use xlink:href="#SVGID_00000083069242022322875730000004192154478473948848_"  style="overflow:visible;"/>
						</clipPath>
						<g style="clip-path:url(#SVGID_00000047752485666829725230000013824132558928230556_);">
							<polygon class="st0" points="2718.5,148.9 2723.9,148.9 2717.8,142.4 2721.4,142.4 2716.3,136.9 2711.2,131.5 2706.1,136.9 
								2701,142.4 2704.6,142.4 2698.5,148.9 2703.9,148.9 2697.8,155.5 2711.2,155.5 2724.7,155.5 							"/>
							<polygon class="st0" points="2842.9,148.9 2848.3,148.9 2842.2,142.4 2845.8,142.4 2840.7,136.9 2835.6,131.5 2830.5,136.9 
								2825.4,142.4 2829,142.4 2822.9,148.9 2828.3,148.9 2822.1,155.5 2835.6,155.5 2849,155.5 							"/>
							<polygon class="st0" points="2760,148.9 2765.4,148.9 2759.3,142.4 2762.9,142.4 2757.8,136.9 2752.7,131.5 2747.6,136.9 
								2742.5,142.4 2746.1,142.4 2740,148.9 2745.4,148.9 2739.2,155.5 2752.7,155.5 2766.1,155.5 							"/>
							<polygon class="st0" points="2801.4,148.9 2806.8,148.9 2800.7,142.4 2804.3,142.4 2799.2,136.9 2794.1,131.5 2789,136.9 
								2783.9,142.4 2787.5,142.4 2781.4,148.9 2786.8,148.9 2780.7,155.5 2794.1,155.5 2807.6,155.5 							"/>
						</g>
					</g>
				</g>
				<g>
					<g>
						<defs>
							<path id="SVGID_00000087393217187125353150000008575751198604101013_" d="M2773.4,134.6L2773.4,134.6
								c-33.4,0-60.4-13.5-60.4-30.2v60.9c0,33.4,27,60.4,60.4,60.4l0,0c33.4,0,60.4-27,60.4-60.4v-60.9
								C2833.8,121.1,2806.8,134.6,2773.4,134.6z"/>
						</defs>
						<clipPath id="SVGID_00000108294193448898372110000007440689351279959441_">
							<use xlink:href="#SVGID_00000087393217187125353150000008575751198604101013_"  style="overflow:visible;"/>
						</clipPath>
						<g style="clip-path:url(#SVGID_00000108294193448898372110000007440689351279959441_);">
							<polygon class="st0" points="2697.8,183.7 2703.2,183.7 2697.1,177.2 2700.7,177.2 2695.6,171.8 2690.5,166.3 2685.4,171.8 
								2680.3,177.2 2683.9,177.2 2677.8,183.7 2683.2,183.7 2677,190.3 2690.5,190.3 2704,190.3 							"/>
							<polygon class="st0" points="2822.1,183.7 2827.5,183.7 2821.4,177.2 2825.1,177.2 2820,171.8 2814.8,166.3 2809.7,171.8 
								2804.6,177.2 2808.3,177.2 2802.2,183.7 2807.6,183.7 2801.4,190.3 2814.8,190.3 2828.3,190.3 							"/>
							<polygon class="st0" points="2739.2,183.7 2744.6,183.7 2738.5,177.2 2742.2,177.2 2737.1,171.8 2732,166.3 2726.8,171.8 
								2721.7,177.2 2725.4,177.2 2719.3,183.7 2724.7,183.7 2718.5,190.3 2732,190.3 2745.4,190.3 							"/>
							<polygon class="st0" points="2780.7,183.7 2786.1,183.7 2780,177.2 2783.6,177.2 2778.5,171.8 2773.4,166.3 2768.3,171.8 
								2763.2,177.2 2766.8,177.2 2760.7,183.7 2766.1,183.7 2759.9,190.3 2773.4,190.3 2786.9,190.3 							"/>
							<polygon class="st0" points="2863.6,183.7 2869,183.7 2862.9,177.2 2866.5,177.2 2861.4,171.8 2856.3,166.3 2851.2,171.8 
								2846.1,177.2 2849.7,177.2 2843.6,183.7 2849,183.7 2842.8,190.3 2856.3,190.3 2869.8,190.3 							"/>
						</g>
					</g>
				</g>
				<g>
					<g>
						<defs>
							<path id="SVGID_00000041283255099286043770000000218675712126358187_" d="M2773.4,134.6L2773.4,134.6
								c-33.4,0-60.4-13.5-60.4-30.2v60.9c0,33.4,27,60.4,60.4,60.4l0,0c33.4,0,60.4-27,60.4-60.4v-60.9
								C2833.8,121.1,2806.8,134.6,2773.4,134.6z"/>
						</defs>
						<clipPath id="SVGID_00000076584666607027828010000016228489354818451889_">
							<use xlink:href="#SVGID_00000041283255099286043770000000218675712126358187_"  style="overflow:visible;"/>
						</clipPath>
						<g style="clip-path:url(#SVGID_00000076584666607027828010000016228489354818451889_);">
							<polygon class="st0" points="2718.5,218.6 2723.9,218.6 2717.8,212.1 2721.4,212.1 2716.3,206.6 2711.2,201.1 2706.1,206.6 
								2701,212.1 2704.6,212.1 2698.5,218.6 2703.9,218.6 2697.8,225.2 2711.2,225.2 2724.7,225.2 							"/>
							<polygon class="st0" points="2842.9,218.6 2848.3,218.6 2842.2,212.1 2845.8,212.1 2840.7,206.6 2835.6,201.1 2830.5,206.6 
								2825.4,212.1 2829,212.1 2822.9,218.6 2828.3,218.6 2822.1,225.2 2835.6,225.2 2849,225.2 							"/>
							<polygon class="st0" points="2760,218.6 2765.4,218.6 2759.3,212.1 2762.9,212.1 2757.8,206.6 2752.7,201.1 2747.6,206.6 
								2742.5,212.1 2746.1,212.1 2740,218.6 2745.4,218.6 2739.2,225.2 2752.7,225.2 2766.1,225.2 							"/>
							<polygon class="st0" points="2801.4,218.6 2806.8,218.6 2800.7,212.1 2804.3,212.1 2799.2,206.6 2794.1,201.1 2789,206.6 
								2783.9,212.1 2787.5,212.1 2781.4,218.6 2786.8,218.6 2780.7,225.2 2794.1,225.2 2807.6,225.2 							"/>
						</g>
					</g>
				</g>
			</g>
		</g>
		<g>
			<g>
				<g>
					<g>
						<path class="st1" d="M2768.9,220.3l-1-5.1l-5.3-27.4c-1.6-8.5-9.8-14-18.3-12.4l0,0c-0.2,0-0.3,0.1-0.5,0.1
							c-8.2,1.8-13.5,9.9-11.9,18.2l6.3,32.5c1.6,8.5,9.8,14,18.3,12.4l0,0C2765,237,2770.5,228.8,2768.9,220.3z"/>
						<path class="st4" d="M2768.9,220.3l-1-5.1l-5.3-27.4c-1.6-8.5-9.8-14-18.3-12.4l0,0c-0.2,0-0.3,0.1-0.5,0.1
							c-8.2,1.8-13.5,9.9-11.9,18.2l6.3,32.5c1.6,8.5,9.8,14,18.3,12.4l0,0C2765,237,2770.5,228.8,2768.9,220.3z"/>
					</g>
					<line class="st4" x1="2733" y1="199.4" x2="2750.4" y2="195.6"/>
					<line class="st4" x1="2736.1" y1="207.9" x2="2753.5" y2="204"/>
				</g>
			</g>
			<g>
				<g>
					<g>
						<path class="st1" d="M2777.9,220.3l1-5.1l5.3-27.4c1.6-8.5,9.8-14,18.3-12.4l0,0c0.2,0,0.3,0.1,0.5,0.1
							c8.2,1.8,13.5,9.9,11.9,18.2l-6.3,32.5c-1.6,8.5-9.8,14-18.3,12.4l0,0C2781.8,237,2776.3,228.8,2777.9,220.3z"/>
						<path class="st4" d="M2777.9,220.3l1-5.1l5.3-27.4c1.6-8.5,9.8-14,18.3-12.4l0,0c0.2,0,0.3,0.1,0.5,0.1
							c8.2,1.8,13.5,9.9,11.9,18.2l-6.3,32.5c-1.6,8.5-9.8,14-18.3,12.4l0,0C2781.8,237,2776.3,228.8,2777.9,220.3z"/>
					</g>
					<line class="st4" x1="2813.8" y1="199.4" x2="2796.4" y2="195.6"/>
					<line class="st4" x1="2810.7" y1="207.9" x2="2793.3" y2="204"/>
				</g>
			</g>
		</g>
	</g>
</g>
</svg>
