<?xml version="1.0" encoding="utf-8"?>
<!-- Generator: Adobe Illustrator 28.1.0, SVG Export Plug-In . SVG Version: 6.00 Build 0)  -->
<svg version="1.1" id="Layer_1" xmlns="http://www.w3.org/2000/svg" xmlns:xlink="http://www.w3.org/1999/xlink" x="0px" y="0px"
	 viewBox="0 0 232.4 51" style="enable-background:new 0 0 232.4 51;" xml:space="preserve">
<style type="text/css">
	.st0{fill:none;stroke:#F8F8E5;stroke-miterlimit:10;}
	.st1{fill:#F8F8E5;}
</style>
<g>
	<path class="st0" d="M207.1,48.2H25.5C13,48.2,2.8,38,2.8,25.5l0,0C2.8,13,13,2.9,25.5,2.9H207c12.5,0,22.6,10.2,22.6,22.6l0,0
		C229.7,38,219.5,48.2,207.1,48.2z"/>
	<g>
		<path class="st1" d="M45.4,32.9h-8.9l-1.3,3H27l9.7-22.5h8.6l9.5,22.5h-8.2L45.4,32.9z M38.7,27.2h4.3L41,21.9h-0.1L38.7,27.2z"/>
		<path class="st1" d="M63.3,35.9h-7.9V12.5h7.9V35.9z"/>
		<path class="st1" d="M74,35.9h-7.9V12.5H74V35.9z"/>
		<path class="st1" d="M76.8,18.4h7.3l0.2,1.9h0.1c1-1.3,2.7-2.4,5.8-2.4c0.8,0,1.6,0.1,2.3,0.2v5.9c-0.8-0.2-1.5-0.5-3.1-0.5
			c-3.2,0-4.8,1.5-4.8,5.4v6.9h-7.9L76.8,18.4L76.8,18.4z"/>
		<path class="st1" d="M115,27.1c0,7.4-4.6,9.3-10.9,9.3s-10.9-1.7-10.9-9.3c0-6.9,4.7-9.3,10.9-9.3C110.4,17.8,115,20.4,115,27.1z
			 M107.9,27.2v-0.5c0-2.9-1-4.1-3.8-4.1c-2.7,0-3.8,1.3-3.8,4.1v0.5c0,2.9,1.1,4.2,3.8,4.2C106.8,31.5,107.9,30.2,107.9,27.2z"/>
		<path class="st1" d="M138.2,27.1c0,7.4-4.6,9.3-10.9,9.3c-6.3,0-10.9-1.7-10.9-9.3c0-6.9,4.7-9.3,10.9-9.3
			C133.5,17.8,138.2,20.4,138.2,27.1z M131.1,27.2v-0.5c0-2.9-1-4.1-3.8-4.1s-3.8,1.3-3.8,4.1v0.5c0,2.9,1.1,4.2,3.8,4.2
			S131.1,30.2,131.1,27.2z"/>
		<path class="st1" d="M140.2,12.5h7.9v11.3l5-5.4h9l-7.4,6.9l8.6,10.6h-9.5l-4.2-6.2l-1.4,1.3v4.9h-7.9V12.5H140.2z"/>
		<path class="st1" d="M172.3,17h-8v-4.6h7.9V17H172.3z M164.3,18.4h7.9v17.5h-7.9V18.4z"/>
		<path class="st1" d="M195.3,30.2c-1.1,4.9-4.8,6.2-10.2,6.2c-6.3,0-10.9-1.7-10.9-9.3c0-6.9,4.7-9.3,10.9-9.3
			c6.3,0,10.4,2.7,10.5,9.3c0,0.6,0,1.3-0.1,1.8h-14.1c0.3,1.9,1.6,2.9,3.8,2.9c1.4,0,2.7-0.5,2.9-1.6H195.3z M181.5,25.1h7
			c-0.3-1.6-1.3-2.3-3.3-2.3C182.9,22.8,181.9,23.3,181.5,25.1z"/>
		<path class="st1" d="M197.1,35.9v-5.7h7.5v5.7H197.1z"/>
	</g>
</g>
</svg>
