<?xml version="1.0" encoding="utf-8"?>
<!-- Generator: Adobe Illustrator 28.1.0, SVG Export Plug-In . SVG Version: 6.00 Build 0)  -->
<svg version="1.1" id="Layer_1" xmlns="http://www.w3.org/2000/svg" xmlns:xlink="http://www.w3.org/1999/xlink" x="0px" y="0px"
	 viewBox="0 0 360 512" style="enable-background:new 0 0 360 512;" xml:space="preserve">
<style type="text/css">
	.st0{fill:none;stroke:#F8F8E5;stroke-miterlimit:10;}
	.st1{fill:#F8F8E5;}
</style>
<g>
	<path class="st0" d="M259.4,275.8H100.6c-10.9,0-19.8-8.9-19.8-19.8v0c0-10.9,8.9-19.8,19.8-19.8h158.7c10.9,0,19.8,8.9,19.8,19.8
		v0C279.2,266.9,270.3,275.8,259.4,275.8z"/>
	<g>
		<path class="st1" d="M118,262.5h-7.8l-1.1,2.6h-7.2l8.5-19.7h7.5l8.3,19.7H119L118,262.5z M112.2,257.5h3.8l-1.8-4.7h-0.1
			L112.2,257.5z"/>
		<path class="st1" d="M133.7,265.1h-6.9v-20.5h6.9V265.1z"/>
		<path class="st1" d="M143,265.1h-6.9v-20.5h6.9V265.1z"/>
		<path class="st1" d="M145.5,249.8h6.4l0.2,1.7h0.1c0.9-1.1,2.4-2.1,5.1-2.1c0.7,0,1.4,0.1,2,0.2v5.2c-0.7-0.2-1.3-0.4-2.7-0.4
			c-2.8,0-4.2,1.3-4.2,4.7v6h-6.9V249.8z"/>
		<path class="st1" d="M178.9,257.4c0,6.5-4,8.1-9.5,8.1c-5.5,0-9.5-1.5-9.5-8.1c0-6,4.1-8.1,9.5-8.1
			C174.9,249.3,178.9,251.5,178.9,257.4z M172.7,257.5v-0.4c0-2.5-0.9-3.6-3.3-3.6s-3.3,1.1-3.3,3.6v0.4c0,2.5,1,3.7,3.3,3.7
			C171.7,261.2,172.7,260.1,172.7,257.5z"/>
		<path class="st1" d="M199.2,257.4c0,6.5-4,8.1-9.5,8.1c-5.5,0-9.5-1.5-9.5-8.1c0-6,4.1-8.1,9.5-8.1
			C195.1,249.3,199.2,251.5,199.2,257.4z M193,257.5v-0.4c0-2.5-0.9-3.6-3.3-3.6s-3.3,1.1-3.3,3.6v0.4c0,2.5,1,3.7,3.3,3.7
			C192,261.2,193,260.1,193,257.5z"/>
		<path class="st1" d="M200.9,244.6h6.9v9.9l4.4-4.7h7.9l-6.5,6l7.5,9.3h-8.3l-3.7-5.4l-1.2,1.1v4.3h-6.9V244.6z"/>
		<path class="st1" d="M229,248.6H222v-4h6.9V248.6z M222,249.8h6.9v15.3H222V249.8z"/>
		<path class="st1" d="M249.1,260.1c-1,4.3-4.2,5.4-8.9,5.4c-5.5,0-9.5-1.5-9.5-8.1c0-6,4.1-8.1,9.5-8.1c5.5,0,9.1,2.4,9.2,8.1
			c0,0.5,0,1.1-0.1,1.6H237c0.3,1.7,1.4,2.5,3.3,2.5c1.2,0,2.4-0.4,2.5-1.4H249.1z M237,255.6h6.1c-0.3-1.4-1.1-2-2.9-2
			C238.3,253.6,237.4,254.1,237,255.6z"/>
		<path class="st1" d="M250.7,265.1v-5h6.6v5H250.7z"/>
	</g>
</g>
</svg>
